G04 #@! TF.FileFunction,Copper,L1,Top,Signal*
%FSLAX46Y46*%
G04 Gerber Fmt 4.6, Leading zero omitted, Abs format (unit mm)*
G04 Created by KiCad (PCBNEW 4.0.3-stable) date Wednesday, 09 '09e' November '09e' 2016 14:17:41*
%MOMM*%
%LPD*%
G01*
G04 APERTURE LIST*
%ADD10C,0.100000*%
%ADD11R,1.300000X1.300000*%
%ADD12C,1.300000*%
%ADD13R,1.397000X1.397000*%
%ADD14C,1.397000*%
%ADD15O,2.300000X1.600000*%
%ADD16C,1.524000*%
%ADD17C,2.700020*%
%ADD18C,1.501140*%
%ADD19C,1.998980*%
%ADD20C,2.500000*%
%ADD21R,2.500000X2.500000*%
%ADD22C,4.064000*%
%ADD23R,2.000000X1.900000*%
%ADD24C,1.900000*%
%ADD25C,0.400000*%
%ADD26C,0.200000*%
G04 APERTURE END LIST*
D10*
D11*
X106680000Y-137160000D03*
D12*
X106680000Y-142160000D03*
D11*
X106680000Y-144780000D03*
D12*
X106680000Y-149780000D03*
D11*
X125730000Y-104140000D03*
D12*
X125730000Y-106140000D03*
D13*
X109220000Y-104140000D03*
D14*
X109220000Y-111760000D03*
D13*
X106680000Y-104140000D03*
D14*
X106680000Y-111760000D03*
D15*
X113030000Y-106680000D03*
X113030000Y-109220000D03*
X113030000Y-111760000D03*
X113030000Y-114300000D03*
X113030000Y-116840000D03*
X113030000Y-119380000D03*
X113030000Y-121920000D03*
X113030000Y-124460000D03*
X113030000Y-127000000D03*
X113030000Y-129540000D03*
X113030000Y-132080000D03*
X113030000Y-134620000D03*
X113030000Y-137160000D03*
X113030000Y-139700000D03*
X120650000Y-139700000D03*
X120650000Y-137160000D03*
X120650000Y-134620000D03*
X120650000Y-132080000D03*
X120650000Y-129540000D03*
X120650000Y-127000000D03*
X120650000Y-124460000D03*
X120650000Y-121920000D03*
X120650000Y-119380000D03*
X120650000Y-116840000D03*
X120650000Y-114300000D03*
X120650000Y-111760000D03*
X120650000Y-109220000D03*
X120650000Y-106680000D03*
D16*
X121920000Y-99060000D03*
X119380000Y-99060000D03*
X119380000Y-97061020D03*
X121920000Y-97061020D03*
D17*
X126649480Y-94361000D03*
X114650520Y-94361000D03*
D18*
X106680000Y-131980940D03*
X106680000Y-127099060D03*
D19*
X106680000Y-114300000D03*
X106680000Y-121920000D03*
X106680000Y-93980000D03*
X106680000Y-101600000D03*
X109220000Y-114300000D03*
X109220000Y-121920000D03*
X109220000Y-93980000D03*
X109220000Y-101600000D03*
D20*
X134620000Y-94700000D03*
X134620000Y-99700000D03*
X134620000Y-104700000D03*
X134620000Y-109700000D03*
X134620000Y-114700000D03*
X134620000Y-119700000D03*
X134620000Y-124700000D03*
X134620000Y-129700000D03*
D21*
X134620000Y-139700000D03*
D20*
X134620000Y-134700000D03*
X131760000Y-148590000D03*
X126760000Y-148590000D03*
X121760000Y-148590000D03*
D21*
X111760000Y-148590000D03*
D20*
X116760000Y-148590000D03*
D22*
X105410000Y-88900000D03*
X137160000Y-88900000D03*
X105410000Y-153670000D03*
X137160000Y-153670000D03*
D23*
X125730000Y-137160000D03*
D24*
X125730000Y-139700000D03*
D19*
X124460000Y-133350000D03*
X124460000Y-125730000D03*
D25*
X116840000Y-102870000D02*
X124460000Y-102870000D01*
X124460000Y-102870000D02*
X125730000Y-104140000D01*
X116840000Y-125730000D02*
X118110000Y-127000000D01*
X106680000Y-121920000D02*
X106680000Y-123190000D01*
X110490000Y-124460000D02*
X113030000Y-121920000D01*
X107950000Y-124460000D02*
X110490000Y-124460000D01*
X106680000Y-123190000D02*
X107950000Y-124460000D01*
X116840000Y-121920000D02*
X116840000Y-102870000D01*
X116840000Y-102870000D02*
X116840000Y-99060000D01*
X113030000Y-121920000D02*
X116840000Y-121920000D01*
X118110000Y-127000000D02*
X120650000Y-127000000D01*
X116840000Y-121920000D02*
X116840000Y-125730000D01*
X109220000Y-93980000D02*
X114300000Y-99060000D01*
X114300000Y-99060000D02*
X116840000Y-99060000D01*
X116840000Y-99060000D02*
X119380000Y-99060000D01*
D26*
X124460000Y-133350000D02*
X125730000Y-134620000D01*
X125730000Y-134620000D02*
X125730000Y-137160000D01*
G36*
X135840754Y-86921873D02*
X135184179Y-87577303D01*
X134828405Y-88434101D01*
X134827596Y-89361828D01*
X135181873Y-90219246D01*
X135837303Y-90875821D01*
X136694101Y-91231595D01*
X137621828Y-91232404D01*
X138479246Y-90878127D01*
X139135821Y-90222697D01*
X139365000Y-89670773D01*
X139365000Y-152899830D01*
X139138127Y-152350754D01*
X138482697Y-151694179D01*
X137625899Y-151338405D01*
X136698172Y-151337596D01*
X135840754Y-151691873D01*
X135184179Y-152347303D01*
X134828405Y-153204101D01*
X134827596Y-154131828D01*
X135181873Y-154989246D01*
X135837303Y-155645821D01*
X136389227Y-155875000D01*
X106180170Y-155875000D01*
X106729246Y-155648127D01*
X107385821Y-154992697D01*
X107741595Y-154135899D01*
X107742404Y-153208172D01*
X107388127Y-152350754D01*
X106732697Y-151694179D01*
X105875899Y-151338405D01*
X104948172Y-151337596D01*
X104090754Y-151691873D01*
X103434179Y-152347303D01*
X103205000Y-152899227D01*
X103205000Y-150564178D01*
X106320086Y-150564178D01*
X106406636Y-150666643D01*
X106766749Y-150703764D01*
X106953364Y-150666643D01*
X107039914Y-150564178D01*
X106680000Y-150204264D01*
X106320086Y-150564178D01*
X103205000Y-150564178D01*
X103205000Y-149866749D01*
X105756236Y-149866749D01*
X105793357Y-150053364D01*
X105895822Y-150139914D01*
X106255736Y-149780000D01*
X107104264Y-149780000D01*
X107464178Y-150139914D01*
X107566643Y-150053364D01*
X107603764Y-149693251D01*
X107566643Y-149506636D01*
X107464178Y-149420086D01*
X107104264Y-149780000D01*
X106255736Y-149780000D01*
X105895822Y-149420086D01*
X105793357Y-149506636D01*
X105756236Y-149866749D01*
X103205000Y-149866749D01*
X103205000Y-148995822D01*
X106320086Y-148995822D01*
X106680000Y-149355736D01*
X107039914Y-148995822D01*
X106953364Y-148893357D01*
X106593251Y-148856236D01*
X106406636Y-148893357D01*
X106320086Y-148995822D01*
X103205000Y-148995822D01*
X103205000Y-147340000D01*
X110204123Y-147340000D01*
X110204123Y-149840000D01*
X110225042Y-149951173D01*
X110290745Y-150053279D01*
X110390997Y-150121778D01*
X110510000Y-150145877D01*
X113010000Y-150145877D01*
X113121173Y-150124958D01*
X113223279Y-150059255D01*
X113291778Y-149959003D01*
X113315877Y-149840000D01*
X113315877Y-148896961D01*
X115209732Y-148896961D01*
X115445208Y-149466857D01*
X115880849Y-149903260D01*
X116450333Y-150139730D01*
X117066961Y-150140268D01*
X117636857Y-149904792D01*
X118073260Y-149469151D01*
X118309730Y-148899667D01*
X118309732Y-148896961D01*
X120209732Y-148896961D01*
X120445208Y-149466857D01*
X120880849Y-149903260D01*
X121450333Y-150139730D01*
X122066961Y-150140268D01*
X122636857Y-149904792D01*
X123073260Y-149469151D01*
X123309730Y-148899667D01*
X123309732Y-148896961D01*
X125209732Y-148896961D01*
X125445208Y-149466857D01*
X125880849Y-149903260D01*
X126450333Y-150139730D01*
X127066961Y-150140268D01*
X127636857Y-149904792D01*
X127718780Y-149823012D01*
X130951252Y-149823012D01*
X131115108Y-149988009D01*
X131699192Y-150128381D01*
X132292533Y-150034548D01*
X132404892Y-149988009D01*
X132568748Y-149823012D01*
X131760000Y-149014264D01*
X130951252Y-149823012D01*
X127718780Y-149823012D01*
X128073260Y-149469151D01*
X128309730Y-148899667D01*
X128310053Y-148529192D01*
X130221619Y-148529192D01*
X130315452Y-149122533D01*
X130361991Y-149234892D01*
X130526988Y-149398748D01*
X131335736Y-148590000D01*
X132184264Y-148590000D01*
X132993012Y-149398748D01*
X133158009Y-149234892D01*
X133298381Y-148650808D01*
X133204548Y-148057467D01*
X133158009Y-147945108D01*
X132993012Y-147781252D01*
X132184264Y-148590000D01*
X131335736Y-148590000D01*
X130526988Y-147781252D01*
X130361991Y-147945108D01*
X130221619Y-148529192D01*
X128310053Y-148529192D01*
X128310268Y-148283039D01*
X128074792Y-147713143D01*
X127719259Y-147356988D01*
X130951252Y-147356988D01*
X131760000Y-148165736D01*
X132568748Y-147356988D01*
X132404892Y-147191991D01*
X131820808Y-147051619D01*
X131227467Y-147145452D01*
X131115108Y-147191991D01*
X130951252Y-147356988D01*
X127719259Y-147356988D01*
X127639151Y-147276740D01*
X127069667Y-147040270D01*
X126453039Y-147039732D01*
X125883143Y-147275208D01*
X125446740Y-147710849D01*
X125210270Y-148280333D01*
X125209732Y-148896961D01*
X123309732Y-148896961D01*
X123310268Y-148283039D01*
X123074792Y-147713143D01*
X122639151Y-147276740D01*
X122069667Y-147040270D01*
X121453039Y-147039732D01*
X120883143Y-147275208D01*
X120446740Y-147710849D01*
X120210270Y-148280333D01*
X120209732Y-148896961D01*
X118309732Y-148896961D01*
X118310268Y-148283039D01*
X118074792Y-147713143D01*
X117639151Y-147276740D01*
X117069667Y-147040270D01*
X116453039Y-147039732D01*
X115883143Y-147275208D01*
X115446740Y-147710849D01*
X115210270Y-148280333D01*
X115209732Y-148896961D01*
X113315877Y-148896961D01*
X113315877Y-147340000D01*
X113294958Y-147228827D01*
X113229255Y-147126721D01*
X113129003Y-147058222D01*
X113010000Y-147034123D01*
X110510000Y-147034123D01*
X110398827Y-147055042D01*
X110296721Y-147120745D01*
X110228222Y-147220997D01*
X110204123Y-147340000D01*
X103205000Y-147340000D01*
X103205000Y-144130000D01*
X105724123Y-144130000D01*
X105724123Y-145430000D01*
X105745042Y-145541173D01*
X105810745Y-145643279D01*
X105910997Y-145711778D01*
X106030000Y-145735877D01*
X107330000Y-145735877D01*
X107441173Y-145714958D01*
X107543279Y-145649255D01*
X107611778Y-145549003D01*
X107635877Y-145430000D01*
X107635877Y-144130000D01*
X107614958Y-144018827D01*
X107549255Y-143916721D01*
X107449003Y-143848222D01*
X107330000Y-143824123D01*
X106030000Y-143824123D01*
X105918827Y-143845042D01*
X105816721Y-143910745D01*
X105748222Y-144010997D01*
X105724123Y-144130000D01*
X103205000Y-144130000D01*
X103205000Y-142944178D01*
X106320086Y-142944178D01*
X106406636Y-143046643D01*
X106766749Y-143083764D01*
X106953364Y-143046643D01*
X107039914Y-142944178D01*
X106680000Y-142584264D01*
X106320086Y-142944178D01*
X103205000Y-142944178D01*
X103205000Y-142246749D01*
X105756236Y-142246749D01*
X105793357Y-142433364D01*
X105895822Y-142519914D01*
X106255736Y-142160000D01*
X107104264Y-142160000D01*
X107464178Y-142519914D01*
X107566643Y-142433364D01*
X107603764Y-142073251D01*
X107566643Y-141886636D01*
X107464178Y-141800086D01*
X107104264Y-142160000D01*
X106255736Y-142160000D01*
X105895822Y-141800086D01*
X105793357Y-141886636D01*
X105756236Y-142246749D01*
X103205000Y-142246749D01*
X103205000Y-141375822D01*
X106320086Y-141375822D01*
X106680000Y-141735736D01*
X107039914Y-141375822D01*
X106953364Y-141273357D01*
X106593251Y-141236236D01*
X106406636Y-141273357D01*
X106320086Y-141375822D01*
X103205000Y-141375822D01*
X103205000Y-139700000D01*
X111551593Y-139700000D01*
X111635326Y-140120952D01*
X111873776Y-140477817D01*
X112230641Y-140716267D01*
X112651593Y-140800000D01*
X113408407Y-140800000D01*
X113829359Y-140716267D01*
X114186224Y-140477817D01*
X114424674Y-140120952D01*
X114508407Y-139700000D01*
X119171593Y-139700000D01*
X119255326Y-140120952D01*
X119493776Y-140477817D01*
X119850641Y-140716267D01*
X120271593Y-140800000D01*
X121028407Y-140800000D01*
X121449359Y-140716267D01*
X121806224Y-140477817D01*
X122044674Y-140120952D01*
X122079165Y-139947550D01*
X124479783Y-139947550D01*
X124669684Y-140407143D01*
X125021007Y-140759081D01*
X125480269Y-140949783D01*
X125977550Y-140950217D01*
X126437143Y-140760316D01*
X126789081Y-140408993D01*
X126979783Y-139949731D01*
X126980217Y-139452450D01*
X126790316Y-138992857D01*
X126438993Y-138640919D01*
X125979731Y-138450217D01*
X125731091Y-138450000D01*
X133064123Y-138450000D01*
X133064123Y-140950000D01*
X133085042Y-141061173D01*
X133150745Y-141163279D01*
X133250997Y-141231778D01*
X133370000Y-141255877D01*
X135870000Y-141255877D01*
X135981173Y-141234958D01*
X136083279Y-141169255D01*
X136151778Y-141069003D01*
X136175877Y-140950000D01*
X136175877Y-138450000D01*
X136154958Y-138338827D01*
X136089255Y-138236721D01*
X135989003Y-138168222D01*
X135870000Y-138144123D01*
X133370000Y-138144123D01*
X133258827Y-138165042D01*
X133156721Y-138230745D01*
X133088222Y-138330997D01*
X133064123Y-138450000D01*
X125731091Y-138450000D01*
X125482450Y-138449783D01*
X125022857Y-138639684D01*
X124670919Y-138991007D01*
X124480217Y-139450269D01*
X124479783Y-139947550D01*
X122079165Y-139947550D01*
X122128407Y-139700000D01*
X122044674Y-139279048D01*
X121806224Y-138922183D01*
X121449359Y-138683733D01*
X121028407Y-138600000D01*
X120271593Y-138600000D01*
X119850641Y-138683733D01*
X119493776Y-138922183D01*
X119255326Y-139279048D01*
X119171593Y-139700000D01*
X114508407Y-139700000D01*
X114424674Y-139279048D01*
X114186224Y-138922183D01*
X113829359Y-138683733D01*
X113408407Y-138600000D01*
X112651593Y-138600000D01*
X112230641Y-138683733D01*
X111873776Y-138922183D01*
X111635326Y-139279048D01*
X111551593Y-139700000D01*
X103205000Y-139700000D01*
X103205000Y-136510000D01*
X105724123Y-136510000D01*
X105724123Y-137810000D01*
X105745042Y-137921173D01*
X105810745Y-138023279D01*
X105910997Y-138091778D01*
X106030000Y-138115877D01*
X107330000Y-138115877D01*
X107441173Y-138094958D01*
X107543279Y-138029255D01*
X107611778Y-137929003D01*
X107635877Y-137810000D01*
X107635877Y-137160000D01*
X111551593Y-137160000D01*
X111635326Y-137580952D01*
X111873776Y-137937817D01*
X112230641Y-138176267D01*
X112651593Y-138260000D01*
X113408407Y-138260000D01*
X113829359Y-138176267D01*
X114186224Y-137937817D01*
X114424674Y-137580952D01*
X114508407Y-137160000D01*
X119171593Y-137160000D01*
X119255326Y-137580952D01*
X119493776Y-137937817D01*
X119850641Y-138176267D01*
X120271593Y-138260000D01*
X121028407Y-138260000D01*
X121449359Y-138176267D01*
X121806224Y-137937817D01*
X122044674Y-137580952D01*
X122128407Y-137160000D01*
X122044674Y-136739048D01*
X121806224Y-136382183D01*
X121449359Y-136143733D01*
X121028407Y-136060000D01*
X120271593Y-136060000D01*
X119850641Y-136143733D01*
X119493776Y-136382183D01*
X119255326Y-136739048D01*
X119171593Y-137160000D01*
X114508407Y-137160000D01*
X114424674Y-136739048D01*
X114186224Y-136382183D01*
X113829359Y-136143733D01*
X113408407Y-136060000D01*
X112651593Y-136060000D01*
X112230641Y-136143733D01*
X111873776Y-136382183D01*
X111635326Y-136739048D01*
X111551593Y-137160000D01*
X107635877Y-137160000D01*
X107635877Y-136510000D01*
X107614958Y-136398827D01*
X107549255Y-136296721D01*
X107449003Y-136228222D01*
X107330000Y-136204123D01*
X106030000Y-136204123D01*
X105918827Y-136225042D01*
X105816721Y-136290745D01*
X105748222Y-136390997D01*
X105724123Y-136510000D01*
X103205000Y-136510000D01*
X103205000Y-134620000D01*
X111551593Y-134620000D01*
X111635326Y-135040952D01*
X111873776Y-135397817D01*
X112230641Y-135636267D01*
X112651593Y-135720000D01*
X113408407Y-135720000D01*
X113829359Y-135636267D01*
X114186224Y-135397817D01*
X114424674Y-135040952D01*
X114508407Y-134620000D01*
X119171593Y-134620000D01*
X119255326Y-135040952D01*
X119493776Y-135397817D01*
X119850641Y-135636267D01*
X120271593Y-135720000D01*
X121028407Y-135720000D01*
X121449359Y-135636267D01*
X121806224Y-135397817D01*
X122044674Y-135040952D01*
X122128407Y-134620000D01*
X122044674Y-134199048D01*
X121806224Y-133842183D01*
X121454774Y-133607351D01*
X123160284Y-133607351D01*
X123357703Y-134085141D01*
X123722937Y-134451012D01*
X124200381Y-134649264D01*
X124717351Y-134649716D01*
X125054658Y-134510344D01*
X125330000Y-134785686D01*
X125330000Y-135904123D01*
X124730000Y-135904123D01*
X124618827Y-135925042D01*
X124516721Y-135990745D01*
X124448222Y-136090997D01*
X124424123Y-136210000D01*
X124424123Y-138110000D01*
X124445042Y-138221173D01*
X124510745Y-138323279D01*
X124610997Y-138391778D01*
X124730000Y-138415877D01*
X126730000Y-138415877D01*
X126841173Y-138394958D01*
X126943279Y-138329255D01*
X127011778Y-138229003D01*
X127035877Y-138110000D01*
X127035877Y-136210000D01*
X127014958Y-136098827D01*
X126949255Y-135996721D01*
X126849003Y-135928222D01*
X126730000Y-135904123D01*
X126130000Y-135904123D01*
X126130000Y-135006961D01*
X133069732Y-135006961D01*
X133305208Y-135576857D01*
X133740849Y-136013260D01*
X134310333Y-136249730D01*
X134926961Y-136250268D01*
X135496857Y-136014792D01*
X135933260Y-135579151D01*
X136169730Y-135009667D01*
X136170268Y-134393039D01*
X135934792Y-133823143D01*
X135499151Y-133386740D01*
X134929667Y-133150270D01*
X134313039Y-133149732D01*
X133743143Y-133385208D01*
X133306740Y-133820849D01*
X133070270Y-134390333D01*
X133069732Y-135006961D01*
X126130000Y-135006961D01*
X126130000Y-134620000D01*
X126099552Y-134466927D01*
X126099552Y-134466926D01*
X126012843Y-134337157D01*
X125620202Y-133944516D01*
X125759264Y-133609619D01*
X125759716Y-133092649D01*
X125562297Y-132614859D01*
X125197063Y-132248988D01*
X124719619Y-132050736D01*
X124202649Y-132050284D01*
X123724859Y-132247703D01*
X123358988Y-132612937D01*
X123160736Y-133090381D01*
X123160284Y-133607351D01*
X121454774Y-133607351D01*
X121449359Y-133603733D01*
X121028407Y-133520000D01*
X120271593Y-133520000D01*
X119850641Y-133603733D01*
X119493776Y-133842183D01*
X119255326Y-134199048D01*
X119171593Y-134620000D01*
X114508407Y-134620000D01*
X114424674Y-134199048D01*
X114186224Y-133842183D01*
X113829359Y-133603733D01*
X113408407Y-133520000D01*
X112651593Y-133520000D01*
X112230641Y-133603733D01*
X111873776Y-133842183D01*
X111635326Y-134199048D01*
X111551593Y-134620000D01*
X103205000Y-134620000D01*
X103205000Y-132188995D01*
X105629248Y-132188995D01*
X105788851Y-132575263D01*
X106084123Y-132871051D01*
X106470112Y-133031327D01*
X106888055Y-133031692D01*
X107274323Y-132872089D01*
X107570111Y-132576817D01*
X107730387Y-132190828D01*
X107730483Y-132080000D01*
X111551593Y-132080000D01*
X111635326Y-132500952D01*
X111873776Y-132857817D01*
X112230641Y-133096267D01*
X112651593Y-133180000D01*
X113408407Y-133180000D01*
X113829359Y-133096267D01*
X114186224Y-132857817D01*
X114424674Y-132500952D01*
X114508407Y-132080000D01*
X119171593Y-132080000D01*
X119255326Y-132500952D01*
X119493776Y-132857817D01*
X119850641Y-133096267D01*
X120271593Y-133180000D01*
X121028407Y-133180000D01*
X121449359Y-133096267D01*
X121806224Y-132857817D01*
X122044674Y-132500952D01*
X122128407Y-132080000D01*
X122044674Y-131659048D01*
X121806224Y-131302183D01*
X121449359Y-131063733D01*
X121028407Y-130980000D01*
X120271593Y-130980000D01*
X119850641Y-131063733D01*
X119493776Y-131302183D01*
X119255326Y-131659048D01*
X119171593Y-132080000D01*
X114508407Y-132080000D01*
X114424674Y-131659048D01*
X114186224Y-131302183D01*
X113829359Y-131063733D01*
X113408407Y-130980000D01*
X112651593Y-130980000D01*
X112230641Y-131063733D01*
X111873776Y-131302183D01*
X111635326Y-131659048D01*
X111551593Y-132080000D01*
X107730483Y-132080000D01*
X107730752Y-131772885D01*
X107571149Y-131386617D01*
X107275877Y-131090829D01*
X106889888Y-130930553D01*
X106471945Y-130930188D01*
X106085677Y-131089791D01*
X105789889Y-131385063D01*
X105629613Y-131771052D01*
X105629248Y-132188995D01*
X103205000Y-132188995D01*
X103205000Y-129540000D01*
X111551593Y-129540000D01*
X111635326Y-129960952D01*
X111873776Y-130317817D01*
X112230641Y-130556267D01*
X112651593Y-130640000D01*
X113408407Y-130640000D01*
X113829359Y-130556267D01*
X114186224Y-130317817D01*
X114424674Y-129960952D01*
X114508407Y-129540000D01*
X119171593Y-129540000D01*
X119255326Y-129960952D01*
X119493776Y-130317817D01*
X119850641Y-130556267D01*
X120271593Y-130640000D01*
X121028407Y-130640000D01*
X121449359Y-130556267D01*
X121806224Y-130317817D01*
X122013931Y-130006961D01*
X133069732Y-130006961D01*
X133305208Y-130576857D01*
X133740849Y-131013260D01*
X134310333Y-131249730D01*
X134926961Y-131250268D01*
X135496857Y-131014792D01*
X135933260Y-130579151D01*
X136169730Y-130009667D01*
X136170268Y-129393039D01*
X135934792Y-128823143D01*
X135499151Y-128386740D01*
X134929667Y-128150270D01*
X134313039Y-128149732D01*
X133743143Y-128385208D01*
X133306740Y-128820849D01*
X133070270Y-129390333D01*
X133069732Y-130006961D01*
X122013931Y-130006961D01*
X122044674Y-129960952D01*
X122128407Y-129540000D01*
X122044674Y-129119048D01*
X121806224Y-128762183D01*
X121449359Y-128523733D01*
X121028407Y-128440000D01*
X120271593Y-128440000D01*
X119850641Y-128523733D01*
X119493776Y-128762183D01*
X119255326Y-129119048D01*
X119171593Y-129540000D01*
X114508407Y-129540000D01*
X114424674Y-129119048D01*
X114186224Y-128762183D01*
X113829359Y-128523733D01*
X113408407Y-128440000D01*
X112651593Y-128440000D01*
X112230641Y-128523733D01*
X111873776Y-128762183D01*
X111635326Y-129119048D01*
X111551593Y-129540000D01*
X103205000Y-129540000D01*
X103205000Y-127307115D01*
X105629248Y-127307115D01*
X105788851Y-127693383D01*
X106084123Y-127989171D01*
X106470112Y-128149447D01*
X106888055Y-128149812D01*
X107274323Y-127990209D01*
X107570111Y-127694937D01*
X107730387Y-127308948D01*
X107730656Y-127000000D01*
X111551593Y-127000000D01*
X111635326Y-127420952D01*
X111873776Y-127777817D01*
X112230641Y-128016267D01*
X112651593Y-128100000D01*
X113408407Y-128100000D01*
X113829359Y-128016267D01*
X114186224Y-127777817D01*
X114424674Y-127420952D01*
X114508407Y-127000000D01*
X114424674Y-126579048D01*
X114186224Y-126222183D01*
X113829359Y-125983733D01*
X113408407Y-125900000D01*
X112651593Y-125900000D01*
X112230641Y-125983733D01*
X111873776Y-126222183D01*
X111635326Y-126579048D01*
X111551593Y-127000000D01*
X107730656Y-127000000D01*
X107730752Y-126891005D01*
X107571149Y-126504737D01*
X107275877Y-126208949D01*
X106889888Y-126048673D01*
X106471945Y-126048308D01*
X106085677Y-126207911D01*
X105789889Y-126503183D01*
X105629613Y-126889172D01*
X105629248Y-127307115D01*
X103205000Y-127307115D01*
X103205000Y-119380000D01*
X111551593Y-119380000D01*
X111635326Y-119800952D01*
X111873776Y-120157817D01*
X112230641Y-120396267D01*
X112651593Y-120480000D01*
X113408407Y-120480000D01*
X113829359Y-120396267D01*
X114186224Y-120157817D01*
X114424674Y-119800952D01*
X114508407Y-119380000D01*
X114424674Y-118959048D01*
X114186224Y-118602183D01*
X113829359Y-118363733D01*
X113408407Y-118280000D01*
X112651593Y-118280000D01*
X112230641Y-118363733D01*
X111873776Y-118602183D01*
X111635326Y-118959048D01*
X111551593Y-119380000D01*
X103205000Y-119380000D01*
X103205000Y-116840000D01*
X111551593Y-116840000D01*
X111635326Y-117260952D01*
X111873776Y-117617817D01*
X112230641Y-117856267D01*
X112651593Y-117940000D01*
X113408407Y-117940000D01*
X113829359Y-117856267D01*
X114186224Y-117617817D01*
X114424674Y-117260952D01*
X114508407Y-116840000D01*
X114424674Y-116419048D01*
X114186224Y-116062183D01*
X113829359Y-115823733D01*
X113408407Y-115740000D01*
X112651593Y-115740000D01*
X112230641Y-115823733D01*
X111873776Y-116062183D01*
X111635326Y-116419048D01*
X111551593Y-116840000D01*
X103205000Y-116840000D01*
X103205000Y-114557351D01*
X105380284Y-114557351D01*
X105577703Y-115035141D01*
X105942937Y-115401012D01*
X106420381Y-115599264D01*
X106937351Y-115599716D01*
X107415141Y-115402297D01*
X107781012Y-115037063D01*
X107950171Y-114629683D01*
X108117703Y-115035141D01*
X108482937Y-115401012D01*
X108960381Y-115599264D01*
X109477351Y-115599716D01*
X109955141Y-115402297D01*
X110321012Y-115037063D01*
X110519264Y-114559619D01*
X110519490Y-114300000D01*
X111551593Y-114300000D01*
X111635326Y-114720952D01*
X111873776Y-115077817D01*
X112230641Y-115316267D01*
X112651593Y-115400000D01*
X113408407Y-115400000D01*
X113829359Y-115316267D01*
X114186224Y-115077817D01*
X114424674Y-114720952D01*
X114508407Y-114300000D01*
X114424674Y-113879048D01*
X114186224Y-113522183D01*
X113829359Y-113283733D01*
X113408407Y-113200000D01*
X112651593Y-113200000D01*
X112230641Y-113283733D01*
X111873776Y-113522183D01*
X111635326Y-113879048D01*
X111551593Y-114300000D01*
X110519490Y-114300000D01*
X110519716Y-114042649D01*
X110322297Y-113564859D01*
X109957063Y-113198988D01*
X109479619Y-113000736D01*
X108962649Y-113000284D01*
X108484859Y-113197703D01*
X108118988Y-113562937D01*
X107949829Y-113970317D01*
X107782297Y-113564859D01*
X107417063Y-113198988D01*
X106939619Y-113000736D01*
X106422649Y-113000284D01*
X105944859Y-113197703D01*
X105578988Y-113562937D01*
X105380736Y-114040381D01*
X105380284Y-114557351D01*
X103205000Y-114557351D01*
X103205000Y-112581333D01*
X106282931Y-112581333D01*
X106376010Y-112688797D01*
X106754585Y-112734428D01*
X106983990Y-112688797D01*
X107077069Y-112581333D01*
X108822931Y-112581333D01*
X108916010Y-112688797D01*
X109294585Y-112734428D01*
X109523990Y-112688797D01*
X109617069Y-112581333D01*
X109220000Y-112184264D01*
X108822931Y-112581333D01*
X107077069Y-112581333D01*
X106680000Y-112184264D01*
X106282931Y-112581333D01*
X103205000Y-112581333D01*
X103205000Y-111834585D01*
X105705572Y-111834585D01*
X105751203Y-112063990D01*
X105858667Y-112157069D01*
X106255736Y-111760000D01*
X107104264Y-111760000D01*
X107501333Y-112157069D01*
X107608797Y-112063990D01*
X107636448Y-111834585D01*
X108245572Y-111834585D01*
X108291203Y-112063990D01*
X108398667Y-112157069D01*
X108795736Y-111760000D01*
X109644264Y-111760000D01*
X110041333Y-112157069D01*
X110148797Y-112063990D01*
X110185438Y-111760000D01*
X111551593Y-111760000D01*
X111635326Y-112180952D01*
X111873776Y-112537817D01*
X112230641Y-112776267D01*
X112651593Y-112860000D01*
X113408407Y-112860000D01*
X113829359Y-112776267D01*
X114186224Y-112537817D01*
X114424674Y-112180952D01*
X114508407Y-111760000D01*
X114424674Y-111339048D01*
X114186224Y-110982183D01*
X113829359Y-110743733D01*
X113408407Y-110660000D01*
X112651593Y-110660000D01*
X112230641Y-110743733D01*
X111873776Y-110982183D01*
X111635326Y-111339048D01*
X111551593Y-111760000D01*
X110185438Y-111760000D01*
X110194428Y-111685415D01*
X110148797Y-111456010D01*
X110041333Y-111362931D01*
X109644264Y-111760000D01*
X108795736Y-111760000D01*
X108398667Y-111362931D01*
X108291203Y-111456010D01*
X108245572Y-111834585D01*
X107636448Y-111834585D01*
X107654428Y-111685415D01*
X107608797Y-111456010D01*
X107501333Y-111362931D01*
X107104264Y-111760000D01*
X106255736Y-111760000D01*
X105858667Y-111362931D01*
X105751203Y-111456010D01*
X105705572Y-111834585D01*
X103205000Y-111834585D01*
X103205000Y-110938667D01*
X106282931Y-110938667D01*
X106680000Y-111335736D01*
X107077069Y-110938667D01*
X108822931Y-110938667D01*
X109220000Y-111335736D01*
X109617069Y-110938667D01*
X109523990Y-110831203D01*
X109145415Y-110785572D01*
X108916010Y-110831203D01*
X108822931Y-110938667D01*
X107077069Y-110938667D01*
X106983990Y-110831203D01*
X106605415Y-110785572D01*
X106376010Y-110831203D01*
X106282931Y-110938667D01*
X103205000Y-110938667D01*
X103205000Y-109220000D01*
X111551593Y-109220000D01*
X111635326Y-109640952D01*
X111873776Y-109997817D01*
X112230641Y-110236267D01*
X112651593Y-110320000D01*
X113408407Y-110320000D01*
X113829359Y-110236267D01*
X114186224Y-109997817D01*
X114424674Y-109640952D01*
X114508407Y-109220000D01*
X114424674Y-108799048D01*
X114186224Y-108442183D01*
X113829359Y-108203733D01*
X113408407Y-108120000D01*
X112651593Y-108120000D01*
X112230641Y-108203733D01*
X111873776Y-108442183D01*
X111635326Y-108799048D01*
X111551593Y-109220000D01*
X103205000Y-109220000D01*
X103205000Y-106680000D01*
X111551593Y-106680000D01*
X111635326Y-107100952D01*
X111873776Y-107457817D01*
X112230641Y-107696267D01*
X112651593Y-107780000D01*
X113408407Y-107780000D01*
X113829359Y-107696267D01*
X114186224Y-107457817D01*
X114424674Y-107100952D01*
X114508407Y-106680000D01*
X114424674Y-106259048D01*
X114186224Y-105902183D01*
X113829359Y-105663733D01*
X113408407Y-105580000D01*
X112651593Y-105580000D01*
X112230641Y-105663733D01*
X111873776Y-105902183D01*
X111635326Y-106259048D01*
X111551593Y-106680000D01*
X103205000Y-106680000D01*
X103205000Y-103441500D01*
X105675623Y-103441500D01*
X105675623Y-104838500D01*
X105696542Y-104949673D01*
X105762245Y-105051779D01*
X105862497Y-105120278D01*
X105981500Y-105144377D01*
X107378500Y-105144377D01*
X107489673Y-105123458D01*
X107591779Y-105057755D01*
X107660278Y-104957503D01*
X107684377Y-104838500D01*
X107684377Y-103441500D01*
X108215623Y-103441500D01*
X108215623Y-104838500D01*
X108236542Y-104949673D01*
X108302245Y-105051779D01*
X108402497Y-105120278D01*
X108521500Y-105144377D01*
X109918500Y-105144377D01*
X110029673Y-105123458D01*
X110131779Y-105057755D01*
X110200278Y-104957503D01*
X110224377Y-104838500D01*
X110224377Y-103441500D01*
X110203458Y-103330327D01*
X110137755Y-103228221D01*
X110037503Y-103159722D01*
X109918500Y-103135623D01*
X108521500Y-103135623D01*
X108410327Y-103156542D01*
X108308221Y-103222245D01*
X108239722Y-103322497D01*
X108215623Y-103441500D01*
X107684377Y-103441500D01*
X107663458Y-103330327D01*
X107597755Y-103228221D01*
X107497503Y-103159722D01*
X107378500Y-103135623D01*
X105981500Y-103135623D01*
X105870327Y-103156542D01*
X105768221Y-103222245D01*
X105699722Y-103322497D01*
X105675623Y-103441500D01*
X103205000Y-103441500D01*
X103205000Y-101857351D01*
X105380284Y-101857351D01*
X105577703Y-102335141D01*
X105942937Y-102701012D01*
X106420381Y-102899264D01*
X106937351Y-102899716D01*
X107415141Y-102702297D01*
X107781012Y-102337063D01*
X107950171Y-101929683D01*
X108117703Y-102335141D01*
X108482937Y-102701012D01*
X108960381Y-102899264D01*
X109477351Y-102899716D01*
X109955141Y-102702297D01*
X110321012Y-102337063D01*
X110519264Y-101859619D01*
X110519716Y-101342649D01*
X110322297Y-100864859D01*
X109957063Y-100498988D01*
X109479619Y-100300736D01*
X108962649Y-100300284D01*
X108484859Y-100497703D01*
X108118988Y-100862937D01*
X107949829Y-101270317D01*
X107782297Y-100864859D01*
X107417063Y-100498988D01*
X106939619Y-100300736D01*
X106422649Y-100300284D01*
X105944859Y-100497703D01*
X105578988Y-100862937D01*
X105380736Y-101340381D01*
X105380284Y-101857351D01*
X103205000Y-101857351D01*
X103205000Y-94237351D01*
X105380284Y-94237351D01*
X105577703Y-94715141D01*
X105942937Y-95081012D01*
X106420381Y-95279264D01*
X106937351Y-95279716D01*
X107415141Y-95082297D01*
X107781012Y-94717063D01*
X107950171Y-94309683D01*
X108117703Y-94715141D01*
X108482937Y-95081012D01*
X108960381Y-95279264D01*
X109477351Y-95279716D01*
X109714586Y-95181692D01*
X113946447Y-99413553D01*
X114108658Y-99521940D01*
X114300000Y-99560000D01*
X116340000Y-99560000D01*
X116340000Y-121420000D01*
X114371856Y-121420000D01*
X114186224Y-121142183D01*
X113829359Y-120903733D01*
X113408407Y-120820000D01*
X112651593Y-120820000D01*
X112230641Y-120903733D01*
X111873776Y-121142183D01*
X111635326Y-121499048D01*
X111551593Y-121920000D01*
X111635326Y-122340952D01*
X111742117Y-122500776D01*
X110282894Y-123960000D01*
X108157107Y-123960000D01*
X107276633Y-123079527D01*
X107415141Y-123022297D01*
X107781012Y-122657063D01*
X107950171Y-122249683D01*
X108117703Y-122655141D01*
X108482937Y-123021012D01*
X108960381Y-123219264D01*
X109477351Y-123219716D01*
X109955141Y-123022297D01*
X110321012Y-122657063D01*
X110519264Y-122179619D01*
X110519716Y-121662649D01*
X110322297Y-121184859D01*
X109957063Y-120818988D01*
X109479619Y-120620736D01*
X108962649Y-120620284D01*
X108484859Y-120817703D01*
X108118988Y-121182937D01*
X107949829Y-121590317D01*
X107782297Y-121184859D01*
X107417063Y-120818988D01*
X106939619Y-120620736D01*
X106422649Y-120620284D01*
X105944859Y-120817703D01*
X105578988Y-121182937D01*
X105380736Y-121660381D01*
X105380284Y-122177351D01*
X105577703Y-122655141D01*
X105942937Y-123021012D01*
X106180000Y-123119449D01*
X106180000Y-123190000D01*
X106213815Y-123360000D01*
X106218060Y-123381342D01*
X106326447Y-123543553D01*
X107596446Y-124813553D01*
X107748791Y-124915347D01*
X107758658Y-124921940D01*
X107950000Y-124960000D01*
X110490000Y-124960000D01*
X110681342Y-124921940D01*
X110691209Y-124915347D01*
X111722786Y-124915347D01*
X111846130Y-125127645D01*
X112165101Y-125395932D01*
X112562461Y-125521732D01*
X112730000Y-125462047D01*
X112730000Y-124760000D01*
X113330000Y-124760000D01*
X113330000Y-125462047D01*
X113497539Y-125521732D01*
X113894899Y-125395932D01*
X114213870Y-125127645D01*
X114337214Y-124915347D01*
X114328696Y-124760000D01*
X113330000Y-124760000D01*
X112730000Y-124760000D01*
X111731304Y-124760000D01*
X111722786Y-124915347D01*
X110691209Y-124915347D01*
X110843553Y-124813553D01*
X111820310Y-123836797D01*
X111722786Y-124004653D01*
X111731304Y-124160000D01*
X112730000Y-124160000D01*
X112730000Y-123457953D01*
X113330000Y-123457953D01*
X113330000Y-124160000D01*
X114328696Y-124160000D01*
X114337214Y-124004653D01*
X114213870Y-123792355D01*
X113894899Y-123524068D01*
X113497539Y-123398268D01*
X113330000Y-123457953D01*
X112730000Y-123457953D01*
X112562461Y-123398268D01*
X112165101Y-123524068D01*
X111963321Y-123693786D01*
X112639510Y-123017597D01*
X112651593Y-123020000D01*
X113408407Y-123020000D01*
X113829359Y-122936267D01*
X114186224Y-122697817D01*
X114371856Y-122420000D01*
X116340000Y-122420000D01*
X116340000Y-125730000D01*
X116373815Y-125900000D01*
X116378060Y-125921342D01*
X116486447Y-126083553D01*
X117756446Y-127353553D01*
X117918658Y-127461940D01*
X118110000Y-127500000D01*
X119308144Y-127500000D01*
X119493776Y-127777817D01*
X119850641Y-128016267D01*
X120271593Y-128100000D01*
X121028407Y-128100000D01*
X121449359Y-128016267D01*
X121806224Y-127777817D01*
X122044674Y-127420952D01*
X122128407Y-127000000D01*
X122084190Y-126777705D01*
X123836560Y-126777705D01*
X123968778Y-126916499D01*
X124460223Y-127014165D01*
X124951222Y-126916499D01*
X125083440Y-126777705D01*
X124460000Y-126154264D01*
X123836560Y-126777705D01*
X122084190Y-126777705D01*
X122044674Y-126579048D01*
X121806224Y-126222183D01*
X121449359Y-125983733D01*
X121028407Y-125900000D01*
X120271593Y-125900000D01*
X119850641Y-125983733D01*
X119493776Y-126222183D01*
X119308144Y-126500000D01*
X118317107Y-126500000D01*
X117547330Y-125730223D01*
X123175835Y-125730223D01*
X123273501Y-126221222D01*
X123412295Y-126353440D01*
X124035736Y-125730000D01*
X124884264Y-125730000D01*
X125507705Y-126353440D01*
X125646499Y-126221222D01*
X125744165Y-125729777D01*
X125646499Y-125238778D01*
X125507705Y-125106560D01*
X124884264Y-125730000D01*
X124035736Y-125730000D01*
X123412295Y-125106560D01*
X123273501Y-125238778D01*
X123175835Y-125730223D01*
X117547330Y-125730223D01*
X117340000Y-125522894D01*
X117340000Y-124460000D01*
X119171593Y-124460000D01*
X119255326Y-124880952D01*
X119493776Y-125237817D01*
X119850641Y-125476267D01*
X120271593Y-125560000D01*
X121028407Y-125560000D01*
X121449359Y-125476267D01*
X121806224Y-125237817D01*
X122044674Y-124880952D01*
X122084189Y-124682295D01*
X123836560Y-124682295D01*
X124460000Y-125305736D01*
X124758774Y-125006961D01*
X133069732Y-125006961D01*
X133305208Y-125576857D01*
X133740849Y-126013260D01*
X134310333Y-126249730D01*
X134926961Y-126250268D01*
X135496857Y-126014792D01*
X135933260Y-125579151D01*
X136169730Y-125009667D01*
X136170268Y-124393039D01*
X135934792Y-123823143D01*
X135499151Y-123386740D01*
X134929667Y-123150270D01*
X134313039Y-123149732D01*
X133743143Y-123385208D01*
X133306740Y-123820849D01*
X133070270Y-124390333D01*
X133069732Y-125006961D01*
X124758774Y-125006961D01*
X125083440Y-124682295D01*
X124951222Y-124543501D01*
X124459777Y-124445835D01*
X123968778Y-124543501D01*
X123836560Y-124682295D01*
X122084189Y-124682295D01*
X122128407Y-124460000D01*
X122044674Y-124039048D01*
X121806224Y-123682183D01*
X121449359Y-123443733D01*
X121028407Y-123360000D01*
X120271593Y-123360000D01*
X119850641Y-123443733D01*
X119493776Y-123682183D01*
X119255326Y-124039048D01*
X119171593Y-124460000D01*
X117340000Y-124460000D01*
X117340000Y-122375347D01*
X119342786Y-122375347D01*
X119466130Y-122587645D01*
X119785101Y-122855932D01*
X120182461Y-122981732D01*
X120350000Y-122922047D01*
X120350000Y-122220000D01*
X120950000Y-122220000D01*
X120950000Y-122922047D01*
X121117539Y-122981732D01*
X121514899Y-122855932D01*
X121833870Y-122587645D01*
X121957214Y-122375347D01*
X121948696Y-122220000D01*
X120950000Y-122220000D01*
X120350000Y-122220000D01*
X119351304Y-122220000D01*
X119342786Y-122375347D01*
X117340000Y-122375347D01*
X117340000Y-121464653D01*
X119342786Y-121464653D01*
X119351304Y-121620000D01*
X120350000Y-121620000D01*
X120350000Y-120917953D01*
X120950000Y-120917953D01*
X120950000Y-121620000D01*
X121948696Y-121620000D01*
X121957214Y-121464653D01*
X121833870Y-121252355D01*
X121514899Y-120984068D01*
X121117539Y-120858268D01*
X120950000Y-120917953D01*
X120350000Y-120917953D01*
X120182461Y-120858268D01*
X119785101Y-120984068D01*
X119466130Y-121252355D01*
X119342786Y-121464653D01*
X117340000Y-121464653D01*
X117340000Y-119380000D01*
X119171593Y-119380000D01*
X119255326Y-119800952D01*
X119493776Y-120157817D01*
X119850641Y-120396267D01*
X120271593Y-120480000D01*
X121028407Y-120480000D01*
X121449359Y-120396267D01*
X121806224Y-120157817D01*
X121907022Y-120006961D01*
X133069732Y-120006961D01*
X133305208Y-120576857D01*
X133740849Y-121013260D01*
X134310333Y-121249730D01*
X134926961Y-121250268D01*
X135496857Y-121014792D01*
X135933260Y-120579151D01*
X136169730Y-120009667D01*
X136170268Y-119393039D01*
X135934792Y-118823143D01*
X135499151Y-118386740D01*
X134929667Y-118150270D01*
X134313039Y-118149732D01*
X133743143Y-118385208D01*
X133306740Y-118820849D01*
X133070270Y-119390333D01*
X133069732Y-120006961D01*
X121907022Y-120006961D01*
X122044674Y-119800952D01*
X122128407Y-119380000D01*
X122044674Y-118959048D01*
X121806224Y-118602183D01*
X121449359Y-118363733D01*
X121028407Y-118280000D01*
X120271593Y-118280000D01*
X119850641Y-118363733D01*
X119493776Y-118602183D01*
X119255326Y-118959048D01*
X119171593Y-119380000D01*
X117340000Y-119380000D01*
X117340000Y-116840000D01*
X119171593Y-116840000D01*
X119255326Y-117260952D01*
X119493776Y-117617817D01*
X119850641Y-117856267D01*
X120271593Y-117940000D01*
X121028407Y-117940000D01*
X121449359Y-117856267D01*
X121806224Y-117617817D01*
X122044674Y-117260952D01*
X122128407Y-116840000D01*
X122044674Y-116419048D01*
X121806224Y-116062183D01*
X121449359Y-115823733D01*
X121028407Y-115740000D01*
X120271593Y-115740000D01*
X119850641Y-115823733D01*
X119493776Y-116062183D01*
X119255326Y-116419048D01*
X119171593Y-116840000D01*
X117340000Y-116840000D01*
X117340000Y-114300000D01*
X119171593Y-114300000D01*
X119255326Y-114720952D01*
X119493776Y-115077817D01*
X119850641Y-115316267D01*
X120271593Y-115400000D01*
X121028407Y-115400000D01*
X121449359Y-115316267D01*
X121806224Y-115077817D01*
X121853568Y-115006961D01*
X133069732Y-115006961D01*
X133305208Y-115576857D01*
X133740849Y-116013260D01*
X134310333Y-116249730D01*
X134926961Y-116250268D01*
X135496857Y-116014792D01*
X135933260Y-115579151D01*
X136169730Y-115009667D01*
X136170268Y-114393039D01*
X135934792Y-113823143D01*
X135499151Y-113386740D01*
X134929667Y-113150270D01*
X134313039Y-113149732D01*
X133743143Y-113385208D01*
X133306740Y-113820849D01*
X133070270Y-114390333D01*
X133069732Y-115006961D01*
X121853568Y-115006961D01*
X122044674Y-114720952D01*
X122128407Y-114300000D01*
X122044674Y-113879048D01*
X121806224Y-113522183D01*
X121449359Y-113283733D01*
X121028407Y-113200000D01*
X120271593Y-113200000D01*
X119850641Y-113283733D01*
X119493776Y-113522183D01*
X119255326Y-113879048D01*
X119171593Y-114300000D01*
X117340000Y-114300000D01*
X117340000Y-111760000D01*
X119171593Y-111760000D01*
X119255326Y-112180952D01*
X119493776Y-112537817D01*
X119850641Y-112776267D01*
X120271593Y-112860000D01*
X121028407Y-112860000D01*
X121449359Y-112776267D01*
X121806224Y-112537817D01*
X122044674Y-112180952D01*
X122128407Y-111760000D01*
X122044674Y-111339048D01*
X121806224Y-110982183D01*
X121449359Y-110743733D01*
X121028407Y-110660000D01*
X120271593Y-110660000D01*
X119850641Y-110743733D01*
X119493776Y-110982183D01*
X119255326Y-111339048D01*
X119171593Y-111760000D01*
X117340000Y-111760000D01*
X117340000Y-109220000D01*
X119171593Y-109220000D01*
X119255326Y-109640952D01*
X119493776Y-109997817D01*
X119850641Y-110236267D01*
X120271593Y-110320000D01*
X121028407Y-110320000D01*
X121449359Y-110236267D01*
X121792539Y-110006961D01*
X133069732Y-110006961D01*
X133305208Y-110576857D01*
X133740849Y-111013260D01*
X134310333Y-111249730D01*
X134926961Y-111250268D01*
X135496857Y-111014792D01*
X135933260Y-110579151D01*
X136169730Y-110009667D01*
X136170268Y-109393039D01*
X135934792Y-108823143D01*
X135499151Y-108386740D01*
X134929667Y-108150270D01*
X134313039Y-108149732D01*
X133743143Y-108385208D01*
X133306740Y-108820849D01*
X133070270Y-109390333D01*
X133069732Y-110006961D01*
X121792539Y-110006961D01*
X121806224Y-109997817D01*
X122044674Y-109640952D01*
X122128407Y-109220000D01*
X122044674Y-108799048D01*
X121806224Y-108442183D01*
X121449359Y-108203733D01*
X121028407Y-108120000D01*
X120271593Y-108120000D01*
X119850641Y-108203733D01*
X119493776Y-108442183D01*
X119255326Y-108799048D01*
X119171593Y-109220000D01*
X117340000Y-109220000D01*
X117340000Y-106680000D01*
X119171593Y-106680000D01*
X119255326Y-107100952D01*
X119493776Y-107457817D01*
X119850641Y-107696267D01*
X120271593Y-107780000D01*
X121028407Y-107780000D01*
X121449359Y-107696267D01*
X121806224Y-107457817D01*
X122044674Y-107100952D01*
X122079836Y-106924178D01*
X125370086Y-106924178D01*
X125456636Y-107026643D01*
X125816749Y-107063764D01*
X126003364Y-107026643D01*
X126089914Y-106924178D01*
X125730000Y-106564264D01*
X125370086Y-106924178D01*
X122079836Y-106924178D01*
X122128407Y-106680000D01*
X122044674Y-106259048D01*
X122023093Y-106226749D01*
X124806236Y-106226749D01*
X124843357Y-106413364D01*
X124945822Y-106499914D01*
X125305736Y-106140000D01*
X126154264Y-106140000D01*
X126514178Y-106499914D01*
X126616643Y-106413364D01*
X126653764Y-106053251D01*
X126616643Y-105866636D01*
X126514178Y-105780086D01*
X126154264Y-106140000D01*
X125305736Y-106140000D01*
X124945822Y-105780086D01*
X124843357Y-105866636D01*
X124806236Y-106226749D01*
X122023093Y-106226749D01*
X121806224Y-105902183D01*
X121449359Y-105663733D01*
X121028407Y-105580000D01*
X120271593Y-105580000D01*
X119850641Y-105663733D01*
X119493776Y-105902183D01*
X119255326Y-106259048D01*
X119171593Y-106680000D01*
X117340000Y-106680000D01*
X117340000Y-105355822D01*
X125370086Y-105355822D01*
X125730000Y-105715736D01*
X126089914Y-105355822D01*
X126003364Y-105253357D01*
X125643251Y-105216236D01*
X125456636Y-105253357D01*
X125370086Y-105355822D01*
X117340000Y-105355822D01*
X117340000Y-103370000D01*
X124252894Y-103370000D01*
X124774123Y-103891230D01*
X124774123Y-104790000D01*
X124795042Y-104901173D01*
X124860745Y-105003279D01*
X124960997Y-105071778D01*
X125080000Y-105095877D01*
X126380000Y-105095877D01*
X126491173Y-105074958D01*
X126593279Y-105009255D01*
X126594846Y-105006961D01*
X133069732Y-105006961D01*
X133305208Y-105576857D01*
X133740849Y-106013260D01*
X134310333Y-106249730D01*
X134926961Y-106250268D01*
X135496857Y-106014792D01*
X135933260Y-105579151D01*
X136169730Y-105009667D01*
X136170268Y-104393039D01*
X135934792Y-103823143D01*
X135499151Y-103386740D01*
X134929667Y-103150270D01*
X134313039Y-103149732D01*
X133743143Y-103385208D01*
X133306740Y-103820849D01*
X133070270Y-104390333D01*
X133069732Y-105006961D01*
X126594846Y-105006961D01*
X126661778Y-104909003D01*
X126685877Y-104790000D01*
X126685877Y-103490000D01*
X126664958Y-103378827D01*
X126599255Y-103276721D01*
X126499003Y-103208222D01*
X126380000Y-103184123D01*
X125481230Y-103184123D01*
X124813553Y-102516447D01*
X124651342Y-102408060D01*
X124460000Y-102370000D01*
X117340000Y-102370000D01*
X117340000Y-99560000D01*
X118437510Y-99560000D01*
X118479155Y-99660789D01*
X118777640Y-99959795D01*
X119167828Y-100121815D01*
X119590318Y-100122184D01*
X119980789Y-99960845D01*
X120279795Y-99662360D01*
X120441815Y-99272172D01*
X120442184Y-98849682D01*
X120280845Y-98459211D01*
X119982360Y-98160205D01*
X119710520Y-98047327D01*
X119723848Y-98044676D01*
X119825353Y-97930637D01*
X119380000Y-97485284D01*
X118934647Y-97930637D01*
X119036152Y-98044676D01*
X119051157Y-98046790D01*
X118779211Y-98159155D01*
X118480205Y-98457640D01*
X118437701Y-98560000D01*
X114507106Y-98560000D01*
X113066881Y-97119775D01*
X118339635Y-97119775D01*
X118396344Y-97404868D01*
X118510383Y-97506373D01*
X118955736Y-97061020D01*
X119804264Y-97061020D01*
X120249617Y-97506373D01*
X120363656Y-97404868D01*
X120382464Y-97271338D01*
X120857816Y-97271338D01*
X121019155Y-97661809D01*
X121317640Y-97960815D01*
X121557841Y-98060555D01*
X121319211Y-98159155D01*
X121020205Y-98457640D01*
X120858185Y-98847828D01*
X120857816Y-99270318D01*
X121019155Y-99660789D01*
X121317640Y-99959795D01*
X121707828Y-100121815D01*
X122130318Y-100122184D01*
X122409179Y-100006961D01*
X133069732Y-100006961D01*
X133305208Y-100576857D01*
X133740849Y-101013260D01*
X134310333Y-101249730D01*
X134926961Y-101250268D01*
X135496857Y-101014792D01*
X135933260Y-100579151D01*
X136169730Y-100009667D01*
X136170268Y-99393039D01*
X135934792Y-98823143D01*
X135499151Y-98386740D01*
X134929667Y-98150270D01*
X134313039Y-98149732D01*
X133743143Y-98385208D01*
X133306740Y-98820849D01*
X133070270Y-99390333D01*
X133069732Y-100006961D01*
X122409179Y-100006961D01*
X122520789Y-99960845D01*
X122819795Y-99662360D01*
X122981815Y-99272172D01*
X122982184Y-98849682D01*
X122820845Y-98459211D01*
X122522360Y-98160205D01*
X122282159Y-98060465D01*
X122520789Y-97961865D01*
X122819795Y-97663380D01*
X122981815Y-97273192D01*
X122982184Y-96850702D01*
X122820845Y-96460231D01*
X122522360Y-96161225D01*
X122132172Y-95999205D01*
X121709682Y-95998836D01*
X121319211Y-96160175D01*
X121020205Y-96458660D01*
X120858185Y-96848848D01*
X120857816Y-97271338D01*
X120382464Y-97271338D01*
X120420365Y-97002265D01*
X120363656Y-96717172D01*
X120249617Y-96615667D01*
X119804264Y-97061020D01*
X118955736Y-97061020D01*
X118510383Y-96615667D01*
X118396344Y-96717172D01*
X118339635Y-97119775D01*
X113066881Y-97119775D01*
X112138509Y-96191403D01*
X118934647Y-96191403D01*
X119380000Y-96636756D01*
X119825353Y-96191403D01*
X119723848Y-96077364D01*
X119321245Y-96020655D01*
X119036152Y-96077364D01*
X118934647Y-96191403D01*
X112138509Y-96191403D01*
X111614660Y-95667554D01*
X113768230Y-95667554D01*
X113944595Y-95843013D01*
X114565472Y-96000348D01*
X115199297Y-95908106D01*
X115356445Y-95843013D01*
X115532810Y-95667554D01*
X125767190Y-95667554D01*
X125943555Y-95843013D01*
X126564432Y-96000348D01*
X127198257Y-95908106D01*
X127355405Y-95843013D01*
X127531770Y-95667554D01*
X126649480Y-94785264D01*
X125767190Y-95667554D01*
X115532810Y-95667554D01*
X114650520Y-94785264D01*
X113768230Y-95667554D01*
X111614660Y-95667554D01*
X110421696Y-94474590D01*
X110504177Y-94275952D01*
X113011172Y-94275952D01*
X113103414Y-94909777D01*
X113168507Y-95066925D01*
X113343966Y-95243290D01*
X114226256Y-94361000D01*
X115074784Y-94361000D01*
X115957074Y-95243290D01*
X116132533Y-95066925D01*
X116289868Y-94446048D01*
X116265114Y-94275952D01*
X125010132Y-94275952D01*
X125102374Y-94909777D01*
X125167467Y-95066925D01*
X125342926Y-95243290D01*
X126225216Y-94361000D01*
X127073744Y-94361000D01*
X127956034Y-95243290D01*
X128131493Y-95066925D01*
X128146688Y-95006961D01*
X133069732Y-95006961D01*
X133305208Y-95576857D01*
X133740849Y-96013260D01*
X134310333Y-96249730D01*
X134926961Y-96250268D01*
X135496857Y-96014792D01*
X135933260Y-95579151D01*
X136169730Y-95009667D01*
X136170268Y-94393039D01*
X135934792Y-93823143D01*
X135499151Y-93386740D01*
X134929667Y-93150270D01*
X134313039Y-93149732D01*
X133743143Y-93385208D01*
X133306740Y-93820849D01*
X133070270Y-94390333D01*
X133069732Y-95006961D01*
X128146688Y-95006961D01*
X128288828Y-94446048D01*
X128196586Y-93812223D01*
X128131493Y-93655075D01*
X127956034Y-93478710D01*
X127073744Y-94361000D01*
X126225216Y-94361000D01*
X125342926Y-93478710D01*
X125167467Y-93655075D01*
X125010132Y-94275952D01*
X116265114Y-94275952D01*
X116197626Y-93812223D01*
X116132533Y-93655075D01*
X115957074Y-93478710D01*
X115074784Y-94361000D01*
X114226256Y-94361000D01*
X113343966Y-93478710D01*
X113168507Y-93655075D01*
X113011172Y-94275952D01*
X110504177Y-94275952D01*
X110519264Y-94239619D01*
X110519716Y-93722649D01*
X110322297Y-93244859D01*
X110132216Y-93054446D01*
X113768230Y-93054446D01*
X114650520Y-93936736D01*
X115532810Y-93054446D01*
X125767190Y-93054446D01*
X126649480Y-93936736D01*
X127531770Y-93054446D01*
X127355405Y-92878987D01*
X126734528Y-92721652D01*
X126100703Y-92813894D01*
X125943555Y-92878987D01*
X125767190Y-93054446D01*
X115532810Y-93054446D01*
X115356445Y-92878987D01*
X114735568Y-92721652D01*
X114101743Y-92813894D01*
X113944595Y-92878987D01*
X113768230Y-93054446D01*
X110132216Y-93054446D01*
X109957063Y-92878988D01*
X109479619Y-92680736D01*
X108962649Y-92680284D01*
X108484859Y-92877703D01*
X108118988Y-93242937D01*
X107949829Y-93650317D01*
X107782297Y-93244859D01*
X107417063Y-92878988D01*
X106939619Y-92680736D01*
X106422649Y-92680284D01*
X105944859Y-92877703D01*
X105578988Y-93242937D01*
X105380736Y-93720381D01*
X105380284Y-94237351D01*
X103205000Y-94237351D01*
X103205000Y-89670170D01*
X103431873Y-90219246D01*
X104087303Y-90875821D01*
X104944101Y-91231595D01*
X105871828Y-91232404D01*
X106729246Y-90878127D01*
X107385821Y-90222697D01*
X107741595Y-89365899D01*
X107742404Y-88438172D01*
X107388127Y-87580754D01*
X106732697Y-86924179D01*
X106180773Y-86695000D01*
X136389830Y-86695000D01*
X135840754Y-86921873D01*
X135840754Y-86921873D01*
G37*
X135840754Y-86921873D02*
X135184179Y-87577303D01*
X134828405Y-88434101D01*
X134827596Y-89361828D01*
X135181873Y-90219246D01*
X135837303Y-90875821D01*
X136694101Y-91231595D01*
X137621828Y-91232404D01*
X138479246Y-90878127D01*
X139135821Y-90222697D01*
X139365000Y-89670773D01*
X139365000Y-152899830D01*
X139138127Y-152350754D01*
X138482697Y-151694179D01*
X137625899Y-151338405D01*
X136698172Y-151337596D01*
X135840754Y-151691873D01*
X135184179Y-152347303D01*
X134828405Y-153204101D01*
X134827596Y-154131828D01*
X135181873Y-154989246D01*
X135837303Y-155645821D01*
X136389227Y-155875000D01*
X106180170Y-155875000D01*
X106729246Y-155648127D01*
X107385821Y-154992697D01*
X107741595Y-154135899D01*
X107742404Y-153208172D01*
X107388127Y-152350754D01*
X106732697Y-151694179D01*
X105875899Y-151338405D01*
X104948172Y-151337596D01*
X104090754Y-151691873D01*
X103434179Y-152347303D01*
X103205000Y-152899227D01*
X103205000Y-150564178D01*
X106320086Y-150564178D01*
X106406636Y-150666643D01*
X106766749Y-150703764D01*
X106953364Y-150666643D01*
X107039914Y-150564178D01*
X106680000Y-150204264D01*
X106320086Y-150564178D01*
X103205000Y-150564178D01*
X103205000Y-149866749D01*
X105756236Y-149866749D01*
X105793357Y-150053364D01*
X105895822Y-150139914D01*
X106255736Y-149780000D01*
X107104264Y-149780000D01*
X107464178Y-150139914D01*
X107566643Y-150053364D01*
X107603764Y-149693251D01*
X107566643Y-149506636D01*
X107464178Y-149420086D01*
X107104264Y-149780000D01*
X106255736Y-149780000D01*
X105895822Y-149420086D01*
X105793357Y-149506636D01*
X105756236Y-149866749D01*
X103205000Y-149866749D01*
X103205000Y-148995822D01*
X106320086Y-148995822D01*
X106680000Y-149355736D01*
X107039914Y-148995822D01*
X106953364Y-148893357D01*
X106593251Y-148856236D01*
X106406636Y-148893357D01*
X106320086Y-148995822D01*
X103205000Y-148995822D01*
X103205000Y-147340000D01*
X110204123Y-147340000D01*
X110204123Y-149840000D01*
X110225042Y-149951173D01*
X110290745Y-150053279D01*
X110390997Y-150121778D01*
X110510000Y-150145877D01*
X113010000Y-150145877D01*
X113121173Y-150124958D01*
X113223279Y-150059255D01*
X113291778Y-149959003D01*
X113315877Y-149840000D01*
X113315877Y-148896961D01*
X115209732Y-148896961D01*
X115445208Y-149466857D01*
X115880849Y-149903260D01*
X116450333Y-150139730D01*
X117066961Y-150140268D01*
X117636857Y-149904792D01*
X118073260Y-149469151D01*
X118309730Y-148899667D01*
X118309732Y-148896961D01*
X120209732Y-148896961D01*
X120445208Y-149466857D01*
X120880849Y-149903260D01*
X121450333Y-150139730D01*
X122066961Y-150140268D01*
X122636857Y-149904792D01*
X123073260Y-149469151D01*
X123309730Y-148899667D01*
X123309732Y-148896961D01*
X125209732Y-148896961D01*
X125445208Y-149466857D01*
X125880849Y-149903260D01*
X126450333Y-150139730D01*
X127066961Y-150140268D01*
X127636857Y-149904792D01*
X127718780Y-149823012D01*
X130951252Y-149823012D01*
X131115108Y-149988009D01*
X131699192Y-150128381D01*
X132292533Y-150034548D01*
X132404892Y-149988009D01*
X132568748Y-149823012D01*
X131760000Y-149014264D01*
X130951252Y-149823012D01*
X127718780Y-149823012D01*
X128073260Y-149469151D01*
X128309730Y-148899667D01*
X128310053Y-148529192D01*
X130221619Y-148529192D01*
X130315452Y-149122533D01*
X130361991Y-149234892D01*
X130526988Y-149398748D01*
X131335736Y-148590000D01*
X132184264Y-148590000D01*
X132993012Y-149398748D01*
X133158009Y-149234892D01*
X133298381Y-148650808D01*
X133204548Y-148057467D01*
X133158009Y-147945108D01*
X132993012Y-147781252D01*
X132184264Y-148590000D01*
X131335736Y-148590000D01*
X130526988Y-147781252D01*
X130361991Y-147945108D01*
X130221619Y-148529192D01*
X128310053Y-148529192D01*
X128310268Y-148283039D01*
X128074792Y-147713143D01*
X127719259Y-147356988D01*
X130951252Y-147356988D01*
X131760000Y-148165736D01*
X132568748Y-147356988D01*
X132404892Y-147191991D01*
X131820808Y-147051619D01*
X131227467Y-147145452D01*
X131115108Y-147191991D01*
X130951252Y-147356988D01*
X127719259Y-147356988D01*
X127639151Y-147276740D01*
X127069667Y-147040270D01*
X126453039Y-147039732D01*
X125883143Y-147275208D01*
X125446740Y-147710849D01*
X125210270Y-148280333D01*
X125209732Y-148896961D01*
X123309732Y-148896961D01*
X123310268Y-148283039D01*
X123074792Y-147713143D01*
X122639151Y-147276740D01*
X122069667Y-147040270D01*
X121453039Y-147039732D01*
X120883143Y-147275208D01*
X120446740Y-147710849D01*
X120210270Y-148280333D01*
X120209732Y-148896961D01*
X118309732Y-148896961D01*
X118310268Y-148283039D01*
X118074792Y-147713143D01*
X117639151Y-147276740D01*
X117069667Y-147040270D01*
X116453039Y-147039732D01*
X115883143Y-147275208D01*
X115446740Y-147710849D01*
X115210270Y-148280333D01*
X115209732Y-148896961D01*
X113315877Y-148896961D01*
X113315877Y-147340000D01*
X113294958Y-147228827D01*
X113229255Y-147126721D01*
X113129003Y-147058222D01*
X113010000Y-147034123D01*
X110510000Y-147034123D01*
X110398827Y-147055042D01*
X110296721Y-147120745D01*
X110228222Y-147220997D01*
X110204123Y-147340000D01*
X103205000Y-147340000D01*
X103205000Y-144130000D01*
X105724123Y-144130000D01*
X105724123Y-145430000D01*
X105745042Y-145541173D01*
X105810745Y-145643279D01*
X105910997Y-145711778D01*
X106030000Y-145735877D01*
X107330000Y-145735877D01*
X107441173Y-145714958D01*
X107543279Y-145649255D01*
X107611778Y-145549003D01*
X107635877Y-145430000D01*
X107635877Y-144130000D01*
X107614958Y-144018827D01*
X107549255Y-143916721D01*
X107449003Y-143848222D01*
X107330000Y-143824123D01*
X106030000Y-143824123D01*
X105918827Y-143845042D01*
X105816721Y-143910745D01*
X105748222Y-144010997D01*
X105724123Y-144130000D01*
X103205000Y-144130000D01*
X103205000Y-142944178D01*
X106320086Y-142944178D01*
X106406636Y-143046643D01*
X106766749Y-143083764D01*
X106953364Y-143046643D01*
X107039914Y-142944178D01*
X106680000Y-142584264D01*
X106320086Y-142944178D01*
X103205000Y-142944178D01*
X103205000Y-142246749D01*
X105756236Y-142246749D01*
X105793357Y-142433364D01*
X105895822Y-142519914D01*
X106255736Y-142160000D01*
X107104264Y-142160000D01*
X107464178Y-142519914D01*
X107566643Y-142433364D01*
X107603764Y-142073251D01*
X107566643Y-141886636D01*
X107464178Y-141800086D01*
X107104264Y-142160000D01*
X106255736Y-142160000D01*
X105895822Y-141800086D01*
X105793357Y-141886636D01*
X105756236Y-142246749D01*
X103205000Y-142246749D01*
X103205000Y-141375822D01*
X106320086Y-141375822D01*
X106680000Y-141735736D01*
X107039914Y-141375822D01*
X106953364Y-141273357D01*
X106593251Y-141236236D01*
X106406636Y-141273357D01*
X106320086Y-141375822D01*
X103205000Y-141375822D01*
X103205000Y-139700000D01*
X111551593Y-139700000D01*
X111635326Y-140120952D01*
X111873776Y-140477817D01*
X112230641Y-140716267D01*
X112651593Y-140800000D01*
X113408407Y-140800000D01*
X113829359Y-140716267D01*
X114186224Y-140477817D01*
X114424674Y-140120952D01*
X114508407Y-139700000D01*
X119171593Y-139700000D01*
X119255326Y-140120952D01*
X119493776Y-140477817D01*
X119850641Y-140716267D01*
X120271593Y-140800000D01*
X121028407Y-140800000D01*
X121449359Y-140716267D01*
X121806224Y-140477817D01*
X122044674Y-140120952D01*
X122079165Y-139947550D01*
X124479783Y-139947550D01*
X124669684Y-140407143D01*
X125021007Y-140759081D01*
X125480269Y-140949783D01*
X125977550Y-140950217D01*
X126437143Y-140760316D01*
X126789081Y-140408993D01*
X126979783Y-139949731D01*
X126980217Y-139452450D01*
X126790316Y-138992857D01*
X126438993Y-138640919D01*
X125979731Y-138450217D01*
X125731091Y-138450000D01*
X133064123Y-138450000D01*
X133064123Y-140950000D01*
X133085042Y-141061173D01*
X133150745Y-141163279D01*
X133250997Y-141231778D01*
X133370000Y-141255877D01*
X135870000Y-141255877D01*
X135981173Y-141234958D01*
X136083279Y-141169255D01*
X136151778Y-141069003D01*
X136175877Y-140950000D01*
X136175877Y-138450000D01*
X136154958Y-138338827D01*
X136089255Y-138236721D01*
X135989003Y-138168222D01*
X135870000Y-138144123D01*
X133370000Y-138144123D01*
X133258827Y-138165042D01*
X133156721Y-138230745D01*
X133088222Y-138330997D01*
X133064123Y-138450000D01*
X125731091Y-138450000D01*
X125482450Y-138449783D01*
X125022857Y-138639684D01*
X124670919Y-138991007D01*
X124480217Y-139450269D01*
X124479783Y-139947550D01*
X122079165Y-139947550D01*
X122128407Y-139700000D01*
X122044674Y-139279048D01*
X121806224Y-138922183D01*
X121449359Y-138683733D01*
X121028407Y-138600000D01*
X120271593Y-138600000D01*
X119850641Y-138683733D01*
X119493776Y-138922183D01*
X119255326Y-139279048D01*
X119171593Y-139700000D01*
X114508407Y-139700000D01*
X114424674Y-139279048D01*
X114186224Y-138922183D01*
X113829359Y-138683733D01*
X113408407Y-138600000D01*
X112651593Y-138600000D01*
X112230641Y-138683733D01*
X111873776Y-138922183D01*
X111635326Y-139279048D01*
X111551593Y-139700000D01*
X103205000Y-139700000D01*
X103205000Y-136510000D01*
X105724123Y-136510000D01*
X105724123Y-137810000D01*
X105745042Y-137921173D01*
X105810745Y-138023279D01*
X105910997Y-138091778D01*
X106030000Y-138115877D01*
X107330000Y-138115877D01*
X107441173Y-138094958D01*
X107543279Y-138029255D01*
X107611778Y-137929003D01*
X107635877Y-137810000D01*
X107635877Y-137160000D01*
X111551593Y-137160000D01*
X111635326Y-137580952D01*
X111873776Y-137937817D01*
X112230641Y-138176267D01*
X112651593Y-138260000D01*
X113408407Y-138260000D01*
X113829359Y-138176267D01*
X114186224Y-137937817D01*
X114424674Y-137580952D01*
X114508407Y-137160000D01*
X119171593Y-137160000D01*
X119255326Y-137580952D01*
X119493776Y-137937817D01*
X119850641Y-138176267D01*
X120271593Y-138260000D01*
X121028407Y-138260000D01*
X121449359Y-138176267D01*
X121806224Y-137937817D01*
X122044674Y-137580952D01*
X122128407Y-137160000D01*
X122044674Y-136739048D01*
X121806224Y-136382183D01*
X121449359Y-136143733D01*
X121028407Y-136060000D01*
X120271593Y-136060000D01*
X119850641Y-136143733D01*
X119493776Y-136382183D01*
X119255326Y-136739048D01*
X119171593Y-137160000D01*
X114508407Y-137160000D01*
X114424674Y-136739048D01*
X114186224Y-136382183D01*
X113829359Y-136143733D01*
X113408407Y-136060000D01*
X112651593Y-136060000D01*
X112230641Y-136143733D01*
X111873776Y-136382183D01*
X111635326Y-136739048D01*
X111551593Y-137160000D01*
X107635877Y-137160000D01*
X107635877Y-136510000D01*
X107614958Y-136398827D01*
X107549255Y-136296721D01*
X107449003Y-136228222D01*
X107330000Y-136204123D01*
X106030000Y-136204123D01*
X105918827Y-136225042D01*
X105816721Y-136290745D01*
X105748222Y-136390997D01*
X105724123Y-136510000D01*
X103205000Y-136510000D01*
X103205000Y-134620000D01*
X111551593Y-134620000D01*
X111635326Y-135040952D01*
X111873776Y-135397817D01*
X112230641Y-135636267D01*
X112651593Y-135720000D01*
X113408407Y-135720000D01*
X113829359Y-135636267D01*
X114186224Y-135397817D01*
X114424674Y-135040952D01*
X114508407Y-134620000D01*
X119171593Y-134620000D01*
X119255326Y-135040952D01*
X119493776Y-135397817D01*
X119850641Y-135636267D01*
X120271593Y-135720000D01*
X121028407Y-135720000D01*
X121449359Y-135636267D01*
X121806224Y-135397817D01*
X122044674Y-135040952D01*
X122128407Y-134620000D01*
X122044674Y-134199048D01*
X121806224Y-133842183D01*
X121454774Y-133607351D01*
X123160284Y-133607351D01*
X123357703Y-134085141D01*
X123722937Y-134451012D01*
X124200381Y-134649264D01*
X124717351Y-134649716D01*
X125054658Y-134510344D01*
X125330000Y-134785686D01*
X125330000Y-135904123D01*
X124730000Y-135904123D01*
X124618827Y-135925042D01*
X124516721Y-135990745D01*
X124448222Y-136090997D01*
X124424123Y-136210000D01*
X124424123Y-138110000D01*
X124445042Y-138221173D01*
X124510745Y-138323279D01*
X124610997Y-138391778D01*
X124730000Y-138415877D01*
X126730000Y-138415877D01*
X126841173Y-138394958D01*
X126943279Y-138329255D01*
X127011778Y-138229003D01*
X127035877Y-138110000D01*
X127035877Y-136210000D01*
X127014958Y-136098827D01*
X126949255Y-135996721D01*
X126849003Y-135928222D01*
X126730000Y-135904123D01*
X126130000Y-135904123D01*
X126130000Y-135006961D01*
X133069732Y-135006961D01*
X133305208Y-135576857D01*
X133740849Y-136013260D01*
X134310333Y-136249730D01*
X134926961Y-136250268D01*
X135496857Y-136014792D01*
X135933260Y-135579151D01*
X136169730Y-135009667D01*
X136170268Y-134393039D01*
X135934792Y-133823143D01*
X135499151Y-133386740D01*
X134929667Y-133150270D01*
X134313039Y-133149732D01*
X133743143Y-133385208D01*
X133306740Y-133820849D01*
X133070270Y-134390333D01*
X133069732Y-135006961D01*
X126130000Y-135006961D01*
X126130000Y-134620000D01*
X126099552Y-134466927D01*
X126099552Y-134466926D01*
X126012843Y-134337157D01*
X125620202Y-133944516D01*
X125759264Y-133609619D01*
X125759716Y-133092649D01*
X125562297Y-132614859D01*
X125197063Y-132248988D01*
X124719619Y-132050736D01*
X124202649Y-132050284D01*
X123724859Y-132247703D01*
X123358988Y-132612937D01*
X123160736Y-133090381D01*
X123160284Y-133607351D01*
X121454774Y-133607351D01*
X121449359Y-133603733D01*
X121028407Y-133520000D01*
X120271593Y-133520000D01*
X119850641Y-133603733D01*
X119493776Y-133842183D01*
X119255326Y-134199048D01*
X119171593Y-134620000D01*
X114508407Y-134620000D01*
X114424674Y-134199048D01*
X114186224Y-133842183D01*
X113829359Y-133603733D01*
X113408407Y-133520000D01*
X112651593Y-133520000D01*
X112230641Y-133603733D01*
X111873776Y-133842183D01*
X111635326Y-134199048D01*
X111551593Y-134620000D01*
X103205000Y-134620000D01*
X103205000Y-132188995D01*
X105629248Y-132188995D01*
X105788851Y-132575263D01*
X106084123Y-132871051D01*
X106470112Y-133031327D01*
X106888055Y-133031692D01*
X107274323Y-132872089D01*
X107570111Y-132576817D01*
X107730387Y-132190828D01*
X107730483Y-132080000D01*
X111551593Y-132080000D01*
X111635326Y-132500952D01*
X111873776Y-132857817D01*
X112230641Y-133096267D01*
X112651593Y-133180000D01*
X113408407Y-133180000D01*
X113829359Y-133096267D01*
X114186224Y-132857817D01*
X114424674Y-132500952D01*
X114508407Y-132080000D01*
X119171593Y-132080000D01*
X119255326Y-132500952D01*
X119493776Y-132857817D01*
X119850641Y-133096267D01*
X120271593Y-133180000D01*
X121028407Y-133180000D01*
X121449359Y-133096267D01*
X121806224Y-132857817D01*
X122044674Y-132500952D01*
X122128407Y-132080000D01*
X122044674Y-131659048D01*
X121806224Y-131302183D01*
X121449359Y-131063733D01*
X121028407Y-130980000D01*
X120271593Y-130980000D01*
X119850641Y-131063733D01*
X119493776Y-131302183D01*
X119255326Y-131659048D01*
X119171593Y-132080000D01*
X114508407Y-132080000D01*
X114424674Y-131659048D01*
X114186224Y-131302183D01*
X113829359Y-131063733D01*
X113408407Y-130980000D01*
X112651593Y-130980000D01*
X112230641Y-131063733D01*
X111873776Y-131302183D01*
X111635326Y-131659048D01*
X111551593Y-132080000D01*
X107730483Y-132080000D01*
X107730752Y-131772885D01*
X107571149Y-131386617D01*
X107275877Y-131090829D01*
X106889888Y-130930553D01*
X106471945Y-130930188D01*
X106085677Y-131089791D01*
X105789889Y-131385063D01*
X105629613Y-131771052D01*
X105629248Y-132188995D01*
X103205000Y-132188995D01*
X103205000Y-129540000D01*
X111551593Y-129540000D01*
X111635326Y-129960952D01*
X111873776Y-130317817D01*
X112230641Y-130556267D01*
X112651593Y-130640000D01*
X113408407Y-130640000D01*
X113829359Y-130556267D01*
X114186224Y-130317817D01*
X114424674Y-129960952D01*
X114508407Y-129540000D01*
X119171593Y-129540000D01*
X119255326Y-129960952D01*
X119493776Y-130317817D01*
X119850641Y-130556267D01*
X120271593Y-130640000D01*
X121028407Y-130640000D01*
X121449359Y-130556267D01*
X121806224Y-130317817D01*
X122013931Y-130006961D01*
X133069732Y-130006961D01*
X133305208Y-130576857D01*
X133740849Y-131013260D01*
X134310333Y-131249730D01*
X134926961Y-131250268D01*
X135496857Y-131014792D01*
X135933260Y-130579151D01*
X136169730Y-130009667D01*
X136170268Y-129393039D01*
X135934792Y-128823143D01*
X135499151Y-128386740D01*
X134929667Y-128150270D01*
X134313039Y-128149732D01*
X133743143Y-128385208D01*
X133306740Y-128820849D01*
X133070270Y-129390333D01*
X133069732Y-130006961D01*
X122013931Y-130006961D01*
X122044674Y-129960952D01*
X122128407Y-129540000D01*
X122044674Y-129119048D01*
X121806224Y-128762183D01*
X121449359Y-128523733D01*
X121028407Y-128440000D01*
X120271593Y-128440000D01*
X119850641Y-128523733D01*
X119493776Y-128762183D01*
X119255326Y-129119048D01*
X119171593Y-129540000D01*
X114508407Y-129540000D01*
X114424674Y-129119048D01*
X114186224Y-128762183D01*
X113829359Y-128523733D01*
X113408407Y-128440000D01*
X112651593Y-128440000D01*
X112230641Y-128523733D01*
X111873776Y-128762183D01*
X111635326Y-129119048D01*
X111551593Y-129540000D01*
X103205000Y-129540000D01*
X103205000Y-127307115D01*
X105629248Y-127307115D01*
X105788851Y-127693383D01*
X106084123Y-127989171D01*
X106470112Y-128149447D01*
X106888055Y-128149812D01*
X107274323Y-127990209D01*
X107570111Y-127694937D01*
X107730387Y-127308948D01*
X107730656Y-127000000D01*
X111551593Y-127000000D01*
X111635326Y-127420952D01*
X111873776Y-127777817D01*
X112230641Y-128016267D01*
X112651593Y-128100000D01*
X113408407Y-128100000D01*
X113829359Y-128016267D01*
X114186224Y-127777817D01*
X114424674Y-127420952D01*
X114508407Y-127000000D01*
X114424674Y-126579048D01*
X114186224Y-126222183D01*
X113829359Y-125983733D01*
X113408407Y-125900000D01*
X112651593Y-125900000D01*
X112230641Y-125983733D01*
X111873776Y-126222183D01*
X111635326Y-126579048D01*
X111551593Y-127000000D01*
X107730656Y-127000000D01*
X107730752Y-126891005D01*
X107571149Y-126504737D01*
X107275877Y-126208949D01*
X106889888Y-126048673D01*
X106471945Y-126048308D01*
X106085677Y-126207911D01*
X105789889Y-126503183D01*
X105629613Y-126889172D01*
X105629248Y-127307115D01*
X103205000Y-127307115D01*
X103205000Y-119380000D01*
X111551593Y-119380000D01*
X111635326Y-119800952D01*
X111873776Y-120157817D01*
X112230641Y-120396267D01*
X112651593Y-120480000D01*
X113408407Y-120480000D01*
X113829359Y-120396267D01*
X114186224Y-120157817D01*
X114424674Y-119800952D01*
X114508407Y-119380000D01*
X114424674Y-118959048D01*
X114186224Y-118602183D01*
X113829359Y-118363733D01*
X113408407Y-118280000D01*
X112651593Y-118280000D01*
X112230641Y-118363733D01*
X111873776Y-118602183D01*
X111635326Y-118959048D01*
X111551593Y-119380000D01*
X103205000Y-119380000D01*
X103205000Y-116840000D01*
X111551593Y-116840000D01*
X111635326Y-117260952D01*
X111873776Y-117617817D01*
X112230641Y-117856267D01*
X112651593Y-117940000D01*
X113408407Y-117940000D01*
X113829359Y-117856267D01*
X114186224Y-117617817D01*
X114424674Y-117260952D01*
X114508407Y-116840000D01*
X114424674Y-116419048D01*
X114186224Y-116062183D01*
X113829359Y-115823733D01*
X113408407Y-115740000D01*
X112651593Y-115740000D01*
X112230641Y-115823733D01*
X111873776Y-116062183D01*
X111635326Y-116419048D01*
X111551593Y-116840000D01*
X103205000Y-116840000D01*
X103205000Y-114557351D01*
X105380284Y-114557351D01*
X105577703Y-115035141D01*
X105942937Y-115401012D01*
X106420381Y-115599264D01*
X106937351Y-115599716D01*
X107415141Y-115402297D01*
X107781012Y-115037063D01*
X107950171Y-114629683D01*
X108117703Y-115035141D01*
X108482937Y-115401012D01*
X108960381Y-115599264D01*
X109477351Y-115599716D01*
X109955141Y-115402297D01*
X110321012Y-115037063D01*
X110519264Y-114559619D01*
X110519490Y-114300000D01*
X111551593Y-114300000D01*
X111635326Y-114720952D01*
X111873776Y-115077817D01*
X112230641Y-115316267D01*
X112651593Y-115400000D01*
X113408407Y-115400000D01*
X113829359Y-115316267D01*
X114186224Y-115077817D01*
X114424674Y-114720952D01*
X114508407Y-114300000D01*
X114424674Y-113879048D01*
X114186224Y-113522183D01*
X113829359Y-113283733D01*
X113408407Y-113200000D01*
X112651593Y-113200000D01*
X112230641Y-113283733D01*
X111873776Y-113522183D01*
X111635326Y-113879048D01*
X111551593Y-114300000D01*
X110519490Y-114300000D01*
X110519716Y-114042649D01*
X110322297Y-113564859D01*
X109957063Y-113198988D01*
X109479619Y-113000736D01*
X108962649Y-113000284D01*
X108484859Y-113197703D01*
X108118988Y-113562937D01*
X107949829Y-113970317D01*
X107782297Y-113564859D01*
X107417063Y-113198988D01*
X106939619Y-113000736D01*
X106422649Y-113000284D01*
X105944859Y-113197703D01*
X105578988Y-113562937D01*
X105380736Y-114040381D01*
X105380284Y-114557351D01*
X103205000Y-114557351D01*
X103205000Y-112581333D01*
X106282931Y-112581333D01*
X106376010Y-112688797D01*
X106754585Y-112734428D01*
X106983990Y-112688797D01*
X107077069Y-112581333D01*
X108822931Y-112581333D01*
X108916010Y-112688797D01*
X109294585Y-112734428D01*
X109523990Y-112688797D01*
X109617069Y-112581333D01*
X109220000Y-112184264D01*
X108822931Y-112581333D01*
X107077069Y-112581333D01*
X106680000Y-112184264D01*
X106282931Y-112581333D01*
X103205000Y-112581333D01*
X103205000Y-111834585D01*
X105705572Y-111834585D01*
X105751203Y-112063990D01*
X105858667Y-112157069D01*
X106255736Y-111760000D01*
X107104264Y-111760000D01*
X107501333Y-112157069D01*
X107608797Y-112063990D01*
X107636448Y-111834585D01*
X108245572Y-111834585D01*
X108291203Y-112063990D01*
X108398667Y-112157069D01*
X108795736Y-111760000D01*
X109644264Y-111760000D01*
X110041333Y-112157069D01*
X110148797Y-112063990D01*
X110185438Y-111760000D01*
X111551593Y-111760000D01*
X111635326Y-112180952D01*
X111873776Y-112537817D01*
X112230641Y-112776267D01*
X112651593Y-112860000D01*
X113408407Y-112860000D01*
X113829359Y-112776267D01*
X114186224Y-112537817D01*
X114424674Y-112180952D01*
X114508407Y-111760000D01*
X114424674Y-111339048D01*
X114186224Y-110982183D01*
X113829359Y-110743733D01*
X113408407Y-110660000D01*
X112651593Y-110660000D01*
X112230641Y-110743733D01*
X111873776Y-110982183D01*
X111635326Y-111339048D01*
X111551593Y-111760000D01*
X110185438Y-111760000D01*
X110194428Y-111685415D01*
X110148797Y-111456010D01*
X110041333Y-111362931D01*
X109644264Y-111760000D01*
X108795736Y-111760000D01*
X108398667Y-111362931D01*
X108291203Y-111456010D01*
X108245572Y-111834585D01*
X107636448Y-111834585D01*
X107654428Y-111685415D01*
X107608797Y-111456010D01*
X107501333Y-111362931D01*
X107104264Y-111760000D01*
X106255736Y-111760000D01*
X105858667Y-111362931D01*
X105751203Y-111456010D01*
X105705572Y-111834585D01*
X103205000Y-111834585D01*
X103205000Y-110938667D01*
X106282931Y-110938667D01*
X106680000Y-111335736D01*
X107077069Y-110938667D01*
X108822931Y-110938667D01*
X109220000Y-111335736D01*
X109617069Y-110938667D01*
X109523990Y-110831203D01*
X109145415Y-110785572D01*
X108916010Y-110831203D01*
X108822931Y-110938667D01*
X107077069Y-110938667D01*
X106983990Y-110831203D01*
X106605415Y-110785572D01*
X106376010Y-110831203D01*
X106282931Y-110938667D01*
X103205000Y-110938667D01*
X103205000Y-109220000D01*
X111551593Y-109220000D01*
X111635326Y-109640952D01*
X111873776Y-109997817D01*
X112230641Y-110236267D01*
X112651593Y-110320000D01*
X113408407Y-110320000D01*
X113829359Y-110236267D01*
X114186224Y-109997817D01*
X114424674Y-109640952D01*
X114508407Y-109220000D01*
X114424674Y-108799048D01*
X114186224Y-108442183D01*
X113829359Y-108203733D01*
X113408407Y-108120000D01*
X112651593Y-108120000D01*
X112230641Y-108203733D01*
X111873776Y-108442183D01*
X111635326Y-108799048D01*
X111551593Y-109220000D01*
X103205000Y-109220000D01*
X103205000Y-106680000D01*
X111551593Y-106680000D01*
X111635326Y-107100952D01*
X111873776Y-107457817D01*
X112230641Y-107696267D01*
X112651593Y-107780000D01*
X113408407Y-107780000D01*
X113829359Y-107696267D01*
X114186224Y-107457817D01*
X114424674Y-107100952D01*
X114508407Y-106680000D01*
X114424674Y-106259048D01*
X114186224Y-105902183D01*
X113829359Y-105663733D01*
X113408407Y-105580000D01*
X112651593Y-105580000D01*
X112230641Y-105663733D01*
X111873776Y-105902183D01*
X111635326Y-106259048D01*
X111551593Y-106680000D01*
X103205000Y-106680000D01*
X103205000Y-103441500D01*
X105675623Y-103441500D01*
X105675623Y-104838500D01*
X105696542Y-104949673D01*
X105762245Y-105051779D01*
X105862497Y-105120278D01*
X105981500Y-105144377D01*
X107378500Y-105144377D01*
X107489673Y-105123458D01*
X107591779Y-105057755D01*
X107660278Y-104957503D01*
X107684377Y-104838500D01*
X107684377Y-103441500D01*
X108215623Y-103441500D01*
X108215623Y-104838500D01*
X108236542Y-104949673D01*
X108302245Y-105051779D01*
X108402497Y-105120278D01*
X108521500Y-105144377D01*
X109918500Y-105144377D01*
X110029673Y-105123458D01*
X110131779Y-105057755D01*
X110200278Y-104957503D01*
X110224377Y-104838500D01*
X110224377Y-103441500D01*
X110203458Y-103330327D01*
X110137755Y-103228221D01*
X110037503Y-103159722D01*
X109918500Y-103135623D01*
X108521500Y-103135623D01*
X108410327Y-103156542D01*
X108308221Y-103222245D01*
X108239722Y-103322497D01*
X108215623Y-103441500D01*
X107684377Y-103441500D01*
X107663458Y-103330327D01*
X107597755Y-103228221D01*
X107497503Y-103159722D01*
X107378500Y-103135623D01*
X105981500Y-103135623D01*
X105870327Y-103156542D01*
X105768221Y-103222245D01*
X105699722Y-103322497D01*
X105675623Y-103441500D01*
X103205000Y-103441500D01*
X103205000Y-101857351D01*
X105380284Y-101857351D01*
X105577703Y-102335141D01*
X105942937Y-102701012D01*
X106420381Y-102899264D01*
X106937351Y-102899716D01*
X107415141Y-102702297D01*
X107781012Y-102337063D01*
X107950171Y-101929683D01*
X108117703Y-102335141D01*
X108482937Y-102701012D01*
X108960381Y-102899264D01*
X109477351Y-102899716D01*
X109955141Y-102702297D01*
X110321012Y-102337063D01*
X110519264Y-101859619D01*
X110519716Y-101342649D01*
X110322297Y-100864859D01*
X109957063Y-100498988D01*
X109479619Y-100300736D01*
X108962649Y-100300284D01*
X108484859Y-100497703D01*
X108118988Y-100862937D01*
X107949829Y-101270317D01*
X107782297Y-100864859D01*
X107417063Y-100498988D01*
X106939619Y-100300736D01*
X106422649Y-100300284D01*
X105944859Y-100497703D01*
X105578988Y-100862937D01*
X105380736Y-101340381D01*
X105380284Y-101857351D01*
X103205000Y-101857351D01*
X103205000Y-94237351D01*
X105380284Y-94237351D01*
X105577703Y-94715141D01*
X105942937Y-95081012D01*
X106420381Y-95279264D01*
X106937351Y-95279716D01*
X107415141Y-95082297D01*
X107781012Y-94717063D01*
X107950171Y-94309683D01*
X108117703Y-94715141D01*
X108482937Y-95081012D01*
X108960381Y-95279264D01*
X109477351Y-95279716D01*
X109714586Y-95181692D01*
X113946447Y-99413553D01*
X114108658Y-99521940D01*
X114300000Y-99560000D01*
X116340000Y-99560000D01*
X116340000Y-121420000D01*
X114371856Y-121420000D01*
X114186224Y-121142183D01*
X113829359Y-120903733D01*
X113408407Y-120820000D01*
X112651593Y-120820000D01*
X112230641Y-120903733D01*
X111873776Y-121142183D01*
X111635326Y-121499048D01*
X111551593Y-121920000D01*
X111635326Y-122340952D01*
X111742117Y-122500776D01*
X110282894Y-123960000D01*
X108157107Y-123960000D01*
X107276633Y-123079527D01*
X107415141Y-123022297D01*
X107781012Y-122657063D01*
X107950171Y-122249683D01*
X108117703Y-122655141D01*
X108482937Y-123021012D01*
X108960381Y-123219264D01*
X109477351Y-123219716D01*
X109955141Y-123022297D01*
X110321012Y-122657063D01*
X110519264Y-122179619D01*
X110519716Y-121662649D01*
X110322297Y-121184859D01*
X109957063Y-120818988D01*
X109479619Y-120620736D01*
X108962649Y-120620284D01*
X108484859Y-120817703D01*
X108118988Y-121182937D01*
X107949829Y-121590317D01*
X107782297Y-121184859D01*
X107417063Y-120818988D01*
X106939619Y-120620736D01*
X106422649Y-120620284D01*
X105944859Y-120817703D01*
X105578988Y-121182937D01*
X105380736Y-121660381D01*
X105380284Y-122177351D01*
X105577703Y-122655141D01*
X105942937Y-123021012D01*
X106180000Y-123119449D01*
X106180000Y-123190000D01*
X106213815Y-123360000D01*
X106218060Y-123381342D01*
X106326447Y-123543553D01*
X107596446Y-124813553D01*
X107748791Y-124915347D01*
X107758658Y-124921940D01*
X107950000Y-124960000D01*
X110490000Y-124960000D01*
X110681342Y-124921940D01*
X110691209Y-124915347D01*
X111722786Y-124915347D01*
X111846130Y-125127645D01*
X112165101Y-125395932D01*
X112562461Y-125521732D01*
X112730000Y-125462047D01*
X112730000Y-124760000D01*
X113330000Y-124760000D01*
X113330000Y-125462047D01*
X113497539Y-125521732D01*
X113894899Y-125395932D01*
X114213870Y-125127645D01*
X114337214Y-124915347D01*
X114328696Y-124760000D01*
X113330000Y-124760000D01*
X112730000Y-124760000D01*
X111731304Y-124760000D01*
X111722786Y-124915347D01*
X110691209Y-124915347D01*
X110843553Y-124813553D01*
X111820310Y-123836797D01*
X111722786Y-124004653D01*
X111731304Y-124160000D01*
X112730000Y-124160000D01*
X112730000Y-123457953D01*
X113330000Y-123457953D01*
X113330000Y-124160000D01*
X114328696Y-124160000D01*
X114337214Y-124004653D01*
X114213870Y-123792355D01*
X113894899Y-123524068D01*
X113497539Y-123398268D01*
X113330000Y-123457953D01*
X112730000Y-123457953D01*
X112562461Y-123398268D01*
X112165101Y-123524068D01*
X111963321Y-123693786D01*
X112639510Y-123017597D01*
X112651593Y-123020000D01*
X113408407Y-123020000D01*
X113829359Y-122936267D01*
X114186224Y-122697817D01*
X114371856Y-122420000D01*
X116340000Y-122420000D01*
X116340000Y-125730000D01*
X116373815Y-125900000D01*
X116378060Y-125921342D01*
X116486447Y-126083553D01*
X117756446Y-127353553D01*
X117918658Y-127461940D01*
X118110000Y-127500000D01*
X119308144Y-127500000D01*
X119493776Y-127777817D01*
X119850641Y-128016267D01*
X120271593Y-128100000D01*
X121028407Y-128100000D01*
X121449359Y-128016267D01*
X121806224Y-127777817D01*
X122044674Y-127420952D01*
X122128407Y-127000000D01*
X122084190Y-126777705D01*
X123836560Y-126777705D01*
X123968778Y-126916499D01*
X124460223Y-127014165D01*
X124951222Y-126916499D01*
X125083440Y-126777705D01*
X124460000Y-126154264D01*
X123836560Y-126777705D01*
X122084190Y-126777705D01*
X122044674Y-126579048D01*
X121806224Y-126222183D01*
X121449359Y-125983733D01*
X121028407Y-125900000D01*
X120271593Y-125900000D01*
X119850641Y-125983733D01*
X119493776Y-126222183D01*
X119308144Y-126500000D01*
X118317107Y-126500000D01*
X117547330Y-125730223D01*
X123175835Y-125730223D01*
X123273501Y-126221222D01*
X123412295Y-126353440D01*
X124035736Y-125730000D01*
X124884264Y-125730000D01*
X125507705Y-126353440D01*
X125646499Y-126221222D01*
X125744165Y-125729777D01*
X125646499Y-125238778D01*
X125507705Y-125106560D01*
X124884264Y-125730000D01*
X124035736Y-125730000D01*
X123412295Y-125106560D01*
X123273501Y-125238778D01*
X123175835Y-125730223D01*
X117547330Y-125730223D01*
X117340000Y-125522894D01*
X117340000Y-124460000D01*
X119171593Y-124460000D01*
X119255326Y-124880952D01*
X119493776Y-125237817D01*
X119850641Y-125476267D01*
X120271593Y-125560000D01*
X121028407Y-125560000D01*
X121449359Y-125476267D01*
X121806224Y-125237817D01*
X122044674Y-124880952D01*
X122084189Y-124682295D01*
X123836560Y-124682295D01*
X124460000Y-125305736D01*
X124758774Y-125006961D01*
X133069732Y-125006961D01*
X133305208Y-125576857D01*
X133740849Y-126013260D01*
X134310333Y-126249730D01*
X134926961Y-126250268D01*
X135496857Y-126014792D01*
X135933260Y-125579151D01*
X136169730Y-125009667D01*
X136170268Y-124393039D01*
X135934792Y-123823143D01*
X135499151Y-123386740D01*
X134929667Y-123150270D01*
X134313039Y-123149732D01*
X133743143Y-123385208D01*
X133306740Y-123820849D01*
X133070270Y-124390333D01*
X133069732Y-125006961D01*
X124758774Y-125006961D01*
X125083440Y-124682295D01*
X124951222Y-124543501D01*
X124459777Y-124445835D01*
X123968778Y-124543501D01*
X123836560Y-124682295D01*
X122084189Y-124682295D01*
X122128407Y-124460000D01*
X122044674Y-124039048D01*
X121806224Y-123682183D01*
X121449359Y-123443733D01*
X121028407Y-123360000D01*
X120271593Y-123360000D01*
X119850641Y-123443733D01*
X119493776Y-123682183D01*
X119255326Y-124039048D01*
X119171593Y-124460000D01*
X117340000Y-124460000D01*
X117340000Y-122375347D01*
X119342786Y-122375347D01*
X119466130Y-122587645D01*
X119785101Y-122855932D01*
X120182461Y-122981732D01*
X120350000Y-122922047D01*
X120350000Y-122220000D01*
X120950000Y-122220000D01*
X120950000Y-122922047D01*
X121117539Y-122981732D01*
X121514899Y-122855932D01*
X121833870Y-122587645D01*
X121957214Y-122375347D01*
X121948696Y-122220000D01*
X120950000Y-122220000D01*
X120350000Y-122220000D01*
X119351304Y-122220000D01*
X119342786Y-122375347D01*
X117340000Y-122375347D01*
X117340000Y-121464653D01*
X119342786Y-121464653D01*
X119351304Y-121620000D01*
X120350000Y-121620000D01*
X120350000Y-120917953D01*
X120950000Y-120917953D01*
X120950000Y-121620000D01*
X121948696Y-121620000D01*
X121957214Y-121464653D01*
X121833870Y-121252355D01*
X121514899Y-120984068D01*
X121117539Y-120858268D01*
X120950000Y-120917953D01*
X120350000Y-120917953D01*
X120182461Y-120858268D01*
X119785101Y-120984068D01*
X119466130Y-121252355D01*
X119342786Y-121464653D01*
X117340000Y-121464653D01*
X117340000Y-119380000D01*
X119171593Y-119380000D01*
X119255326Y-119800952D01*
X119493776Y-120157817D01*
X119850641Y-120396267D01*
X120271593Y-120480000D01*
X121028407Y-120480000D01*
X121449359Y-120396267D01*
X121806224Y-120157817D01*
X121907022Y-120006961D01*
X133069732Y-120006961D01*
X133305208Y-120576857D01*
X133740849Y-121013260D01*
X134310333Y-121249730D01*
X134926961Y-121250268D01*
X135496857Y-121014792D01*
X135933260Y-120579151D01*
X136169730Y-120009667D01*
X136170268Y-119393039D01*
X135934792Y-118823143D01*
X135499151Y-118386740D01*
X134929667Y-118150270D01*
X134313039Y-118149732D01*
X133743143Y-118385208D01*
X133306740Y-118820849D01*
X133070270Y-119390333D01*
X133069732Y-120006961D01*
X121907022Y-120006961D01*
X122044674Y-119800952D01*
X122128407Y-119380000D01*
X122044674Y-118959048D01*
X121806224Y-118602183D01*
X121449359Y-118363733D01*
X121028407Y-118280000D01*
X120271593Y-118280000D01*
X119850641Y-118363733D01*
X119493776Y-118602183D01*
X119255326Y-118959048D01*
X119171593Y-119380000D01*
X117340000Y-119380000D01*
X117340000Y-116840000D01*
X119171593Y-116840000D01*
X119255326Y-117260952D01*
X119493776Y-117617817D01*
X119850641Y-117856267D01*
X120271593Y-117940000D01*
X121028407Y-117940000D01*
X121449359Y-117856267D01*
X121806224Y-117617817D01*
X122044674Y-117260952D01*
X122128407Y-116840000D01*
X122044674Y-116419048D01*
X121806224Y-116062183D01*
X121449359Y-115823733D01*
X121028407Y-115740000D01*
X120271593Y-115740000D01*
X119850641Y-115823733D01*
X119493776Y-116062183D01*
X119255326Y-116419048D01*
X119171593Y-116840000D01*
X117340000Y-116840000D01*
X117340000Y-114300000D01*
X119171593Y-114300000D01*
X119255326Y-114720952D01*
X119493776Y-115077817D01*
X119850641Y-115316267D01*
X120271593Y-115400000D01*
X121028407Y-115400000D01*
X121449359Y-115316267D01*
X121806224Y-115077817D01*
X121853568Y-115006961D01*
X133069732Y-115006961D01*
X133305208Y-115576857D01*
X133740849Y-116013260D01*
X134310333Y-116249730D01*
X134926961Y-116250268D01*
X135496857Y-116014792D01*
X135933260Y-115579151D01*
X136169730Y-115009667D01*
X136170268Y-114393039D01*
X135934792Y-113823143D01*
X135499151Y-113386740D01*
X134929667Y-113150270D01*
X134313039Y-113149732D01*
X133743143Y-113385208D01*
X133306740Y-113820849D01*
X133070270Y-114390333D01*
X133069732Y-115006961D01*
X121853568Y-115006961D01*
X122044674Y-114720952D01*
X122128407Y-114300000D01*
X122044674Y-113879048D01*
X121806224Y-113522183D01*
X121449359Y-113283733D01*
X121028407Y-113200000D01*
X120271593Y-113200000D01*
X119850641Y-113283733D01*
X119493776Y-113522183D01*
X119255326Y-113879048D01*
X119171593Y-114300000D01*
X117340000Y-114300000D01*
X117340000Y-111760000D01*
X119171593Y-111760000D01*
X119255326Y-112180952D01*
X119493776Y-112537817D01*
X119850641Y-112776267D01*
X120271593Y-112860000D01*
X121028407Y-112860000D01*
X121449359Y-112776267D01*
X121806224Y-112537817D01*
X122044674Y-112180952D01*
X122128407Y-111760000D01*
X122044674Y-111339048D01*
X121806224Y-110982183D01*
X121449359Y-110743733D01*
X121028407Y-110660000D01*
X120271593Y-110660000D01*
X119850641Y-110743733D01*
X119493776Y-110982183D01*
X119255326Y-111339048D01*
X119171593Y-111760000D01*
X117340000Y-111760000D01*
X117340000Y-109220000D01*
X119171593Y-109220000D01*
X119255326Y-109640952D01*
X119493776Y-109997817D01*
X119850641Y-110236267D01*
X120271593Y-110320000D01*
X121028407Y-110320000D01*
X121449359Y-110236267D01*
X121792539Y-110006961D01*
X133069732Y-110006961D01*
X133305208Y-110576857D01*
X133740849Y-111013260D01*
X134310333Y-111249730D01*
X134926961Y-111250268D01*
X135496857Y-111014792D01*
X135933260Y-110579151D01*
X136169730Y-110009667D01*
X136170268Y-109393039D01*
X135934792Y-108823143D01*
X135499151Y-108386740D01*
X134929667Y-108150270D01*
X134313039Y-108149732D01*
X133743143Y-108385208D01*
X133306740Y-108820849D01*
X133070270Y-109390333D01*
X133069732Y-110006961D01*
X121792539Y-110006961D01*
X121806224Y-109997817D01*
X122044674Y-109640952D01*
X122128407Y-109220000D01*
X122044674Y-108799048D01*
X121806224Y-108442183D01*
X121449359Y-108203733D01*
X121028407Y-108120000D01*
X120271593Y-108120000D01*
X119850641Y-108203733D01*
X119493776Y-108442183D01*
X119255326Y-108799048D01*
X119171593Y-109220000D01*
X117340000Y-109220000D01*
X117340000Y-106680000D01*
X119171593Y-106680000D01*
X119255326Y-107100952D01*
X119493776Y-107457817D01*
X119850641Y-107696267D01*
X120271593Y-107780000D01*
X121028407Y-107780000D01*
X121449359Y-107696267D01*
X121806224Y-107457817D01*
X122044674Y-107100952D01*
X122079836Y-106924178D01*
X125370086Y-106924178D01*
X125456636Y-107026643D01*
X125816749Y-107063764D01*
X126003364Y-107026643D01*
X126089914Y-106924178D01*
X125730000Y-106564264D01*
X125370086Y-106924178D01*
X122079836Y-106924178D01*
X122128407Y-106680000D01*
X122044674Y-106259048D01*
X122023093Y-106226749D01*
X124806236Y-106226749D01*
X124843357Y-106413364D01*
X124945822Y-106499914D01*
X125305736Y-106140000D01*
X126154264Y-106140000D01*
X126514178Y-106499914D01*
X126616643Y-106413364D01*
X126653764Y-106053251D01*
X126616643Y-105866636D01*
X126514178Y-105780086D01*
X126154264Y-106140000D01*
X125305736Y-106140000D01*
X124945822Y-105780086D01*
X124843357Y-105866636D01*
X124806236Y-106226749D01*
X122023093Y-106226749D01*
X121806224Y-105902183D01*
X121449359Y-105663733D01*
X121028407Y-105580000D01*
X120271593Y-105580000D01*
X119850641Y-105663733D01*
X119493776Y-105902183D01*
X119255326Y-106259048D01*
X119171593Y-106680000D01*
X117340000Y-106680000D01*
X117340000Y-105355822D01*
X125370086Y-105355822D01*
X125730000Y-105715736D01*
X126089914Y-105355822D01*
X126003364Y-105253357D01*
X125643251Y-105216236D01*
X125456636Y-105253357D01*
X125370086Y-105355822D01*
X117340000Y-105355822D01*
X117340000Y-103370000D01*
X124252894Y-103370000D01*
X124774123Y-103891230D01*
X124774123Y-104790000D01*
X124795042Y-104901173D01*
X124860745Y-105003279D01*
X124960997Y-105071778D01*
X125080000Y-105095877D01*
X126380000Y-105095877D01*
X126491173Y-105074958D01*
X126593279Y-105009255D01*
X126594846Y-105006961D01*
X133069732Y-105006961D01*
X133305208Y-105576857D01*
X133740849Y-106013260D01*
X134310333Y-106249730D01*
X134926961Y-106250268D01*
X135496857Y-106014792D01*
X135933260Y-105579151D01*
X136169730Y-105009667D01*
X136170268Y-104393039D01*
X135934792Y-103823143D01*
X135499151Y-103386740D01*
X134929667Y-103150270D01*
X134313039Y-103149732D01*
X133743143Y-103385208D01*
X133306740Y-103820849D01*
X133070270Y-104390333D01*
X133069732Y-105006961D01*
X126594846Y-105006961D01*
X126661778Y-104909003D01*
X126685877Y-104790000D01*
X126685877Y-103490000D01*
X126664958Y-103378827D01*
X126599255Y-103276721D01*
X126499003Y-103208222D01*
X126380000Y-103184123D01*
X125481230Y-103184123D01*
X124813553Y-102516447D01*
X124651342Y-102408060D01*
X124460000Y-102370000D01*
X117340000Y-102370000D01*
X117340000Y-99560000D01*
X118437510Y-99560000D01*
X118479155Y-99660789D01*
X118777640Y-99959795D01*
X119167828Y-100121815D01*
X119590318Y-100122184D01*
X119980789Y-99960845D01*
X120279795Y-99662360D01*
X120441815Y-99272172D01*
X120442184Y-98849682D01*
X120280845Y-98459211D01*
X119982360Y-98160205D01*
X119710520Y-98047327D01*
X119723848Y-98044676D01*
X119825353Y-97930637D01*
X119380000Y-97485284D01*
X118934647Y-97930637D01*
X119036152Y-98044676D01*
X119051157Y-98046790D01*
X118779211Y-98159155D01*
X118480205Y-98457640D01*
X118437701Y-98560000D01*
X114507106Y-98560000D01*
X113066881Y-97119775D01*
X118339635Y-97119775D01*
X118396344Y-97404868D01*
X118510383Y-97506373D01*
X118955736Y-97061020D01*
X119804264Y-97061020D01*
X120249617Y-97506373D01*
X120363656Y-97404868D01*
X120382464Y-97271338D01*
X120857816Y-97271338D01*
X121019155Y-97661809D01*
X121317640Y-97960815D01*
X121557841Y-98060555D01*
X121319211Y-98159155D01*
X121020205Y-98457640D01*
X120858185Y-98847828D01*
X120857816Y-99270318D01*
X121019155Y-99660789D01*
X121317640Y-99959795D01*
X121707828Y-100121815D01*
X122130318Y-100122184D01*
X122409179Y-100006961D01*
X133069732Y-100006961D01*
X133305208Y-100576857D01*
X133740849Y-101013260D01*
X134310333Y-101249730D01*
X134926961Y-101250268D01*
X135496857Y-101014792D01*
X135933260Y-100579151D01*
X136169730Y-100009667D01*
X136170268Y-99393039D01*
X135934792Y-98823143D01*
X135499151Y-98386740D01*
X134929667Y-98150270D01*
X134313039Y-98149732D01*
X133743143Y-98385208D01*
X133306740Y-98820849D01*
X133070270Y-99390333D01*
X133069732Y-100006961D01*
X122409179Y-100006961D01*
X122520789Y-99960845D01*
X122819795Y-99662360D01*
X122981815Y-99272172D01*
X122982184Y-98849682D01*
X122820845Y-98459211D01*
X122522360Y-98160205D01*
X122282159Y-98060465D01*
X122520789Y-97961865D01*
X122819795Y-97663380D01*
X122981815Y-97273192D01*
X122982184Y-96850702D01*
X122820845Y-96460231D01*
X122522360Y-96161225D01*
X122132172Y-95999205D01*
X121709682Y-95998836D01*
X121319211Y-96160175D01*
X121020205Y-96458660D01*
X120858185Y-96848848D01*
X120857816Y-97271338D01*
X120382464Y-97271338D01*
X120420365Y-97002265D01*
X120363656Y-96717172D01*
X120249617Y-96615667D01*
X119804264Y-97061020D01*
X118955736Y-97061020D01*
X118510383Y-96615667D01*
X118396344Y-96717172D01*
X118339635Y-97119775D01*
X113066881Y-97119775D01*
X112138509Y-96191403D01*
X118934647Y-96191403D01*
X119380000Y-96636756D01*
X119825353Y-96191403D01*
X119723848Y-96077364D01*
X119321245Y-96020655D01*
X119036152Y-96077364D01*
X118934647Y-96191403D01*
X112138509Y-96191403D01*
X111614660Y-95667554D01*
X113768230Y-95667554D01*
X113944595Y-95843013D01*
X114565472Y-96000348D01*
X115199297Y-95908106D01*
X115356445Y-95843013D01*
X115532810Y-95667554D01*
X125767190Y-95667554D01*
X125943555Y-95843013D01*
X126564432Y-96000348D01*
X127198257Y-95908106D01*
X127355405Y-95843013D01*
X127531770Y-95667554D01*
X126649480Y-94785264D01*
X125767190Y-95667554D01*
X115532810Y-95667554D01*
X114650520Y-94785264D01*
X113768230Y-95667554D01*
X111614660Y-95667554D01*
X110421696Y-94474590D01*
X110504177Y-94275952D01*
X113011172Y-94275952D01*
X113103414Y-94909777D01*
X113168507Y-95066925D01*
X113343966Y-95243290D01*
X114226256Y-94361000D01*
X115074784Y-94361000D01*
X115957074Y-95243290D01*
X116132533Y-95066925D01*
X116289868Y-94446048D01*
X116265114Y-94275952D01*
X125010132Y-94275952D01*
X125102374Y-94909777D01*
X125167467Y-95066925D01*
X125342926Y-95243290D01*
X126225216Y-94361000D01*
X127073744Y-94361000D01*
X127956034Y-95243290D01*
X128131493Y-95066925D01*
X128146688Y-95006961D01*
X133069732Y-95006961D01*
X133305208Y-95576857D01*
X133740849Y-96013260D01*
X134310333Y-96249730D01*
X134926961Y-96250268D01*
X135496857Y-96014792D01*
X135933260Y-95579151D01*
X136169730Y-95009667D01*
X136170268Y-94393039D01*
X135934792Y-93823143D01*
X135499151Y-93386740D01*
X134929667Y-93150270D01*
X134313039Y-93149732D01*
X133743143Y-93385208D01*
X133306740Y-93820849D01*
X133070270Y-94390333D01*
X133069732Y-95006961D01*
X128146688Y-95006961D01*
X128288828Y-94446048D01*
X128196586Y-93812223D01*
X128131493Y-93655075D01*
X127956034Y-93478710D01*
X127073744Y-94361000D01*
X126225216Y-94361000D01*
X125342926Y-93478710D01*
X125167467Y-93655075D01*
X125010132Y-94275952D01*
X116265114Y-94275952D01*
X116197626Y-93812223D01*
X116132533Y-93655075D01*
X115957074Y-93478710D01*
X115074784Y-94361000D01*
X114226256Y-94361000D01*
X113343966Y-93478710D01*
X113168507Y-93655075D01*
X113011172Y-94275952D01*
X110504177Y-94275952D01*
X110519264Y-94239619D01*
X110519716Y-93722649D01*
X110322297Y-93244859D01*
X110132216Y-93054446D01*
X113768230Y-93054446D01*
X114650520Y-93936736D01*
X115532810Y-93054446D01*
X125767190Y-93054446D01*
X126649480Y-93936736D01*
X127531770Y-93054446D01*
X127355405Y-92878987D01*
X126734528Y-92721652D01*
X126100703Y-92813894D01*
X125943555Y-92878987D01*
X125767190Y-93054446D01*
X115532810Y-93054446D01*
X115356445Y-92878987D01*
X114735568Y-92721652D01*
X114101743Y-92813894D01*
X113944595Y-92878987D01*
X113768230Y-93054446D01*
X110132216Y-93054446D01*
X109957063Y-92878988D01*
X109479619Y-92680736D01*
X108962649Y-92680284D01*
X108484859Y-92877703D01*
X108118988Y-93242937D01*
X107949829Y-93650317D01*
X107782297Y-93244859D01*
X107417063Y-92878988D01*
X106939619Y-92680736D01*
X106422649Y-92680284D01*
X105944859Y-92877703D01*
X105578988Y-93242937D01*
X105380736Y-93720381D01*
X105380284Y-94237351D01*
X103205000Y-94237351D01*
X103205000Y-89670170D01*
X103431873Y-90219246D01*
X104087303Y-90875821D01*
X104944101Y-91231595D01*
X105871828Y-91232404D01*
X106729246Y-90878127D01*
X107385821Y-90222697D01*
X107741595Y-89365899D01*
X107742404Y-88438172D01*
X107388127Y-87580754D01*
X106732697Y-86924179D01*
X106180773Y-86695000D01*
X136389830Y-86695000D01*
X135840754Y-86921873D01*
M02*
