M48
;DRILL file {KiCad 4.0.3-stable} date Wednesday, 09 '09e' November '09e' 2016 14:17:45
;FORMAT={-:-/ absolute / inch / decimal}
FMAT,2
INCH,TZ
T1C0.031
T2C0.032
T3C0.032
T4C0.039
T5C0.051
T6C0.091
T7C0.120
%
G90
G05
M72
T1
X4.2Y-5.4
X4.2Y-5.5969
X4.2Y-5.7
X4.2Y-5.8969
X4.45Y-4.2
X4.45Y-4.3
X4.45Y-4.4
X4.45Y-4.5
X4.45Y-4.6
X4.45Y-4.7
X4.45Y-4.8
X4.45Y-4.9
X4.45Y-5.
X4.45Y-5.1
X4.45Y-5.2
X4.45Y-5.3
X4.45Y-5.4
X4.45Y-5.5
X4.75Y-4.2
X4.75Y-4.3
X4.75Y-4.4
X4.75Y-4.5
X4.75Y-4.6
X4.75Y-4.7
X4.75Y-4.8
X4.75Y-4.9
X4.75Y-5.
X4.75Y-5.1
X4.75Y-5.2
X4.75Y-5.3
X4.75Y-5.4
X4.75Y-5.5
X4.95Y-4.1
X4.95Y-4.1787
T2
X4.2Y-5.0039
X4.2Y-5.1961
T3
X4.2Y-4.1
X4.2Y-4.4
X4.3Y-4.1
X4.3Y-4.4
X4.7Y-3.8213
X4.7Y-3.9
X4.8Y-3.8213
X4.8Y-3.9
T4
X4.2Y-3.7
X4.2Y-4.
X4.2Y-4.5
X4.2Y-4.8
X4.3Y-3.7
X4.3Y-4.
X4.3Y-4.5
X4.3Y-4.8
X4.9Y-4.95
X4.9Y-5.25
X4.95Y-5.4
X4.95Y-5.5
T5
X4.4Y-5.85
X4.5969Y-5.85
X4.7937Y-5.85
X4.9906Y-5.85
X5.1874Y-5.85
X5.3Y-3.7283
X5.3Y-3.9252
X5.3Y-4.122
X5.3Y-4.3189
X5.3Y-4.5157
X5.3Y-4.7126
X5.3Y-4.9094
X5.3Y-5.1063
X5.3Y-5.3031
X5.3Y-5.5
T6
X4.5138Y-3.715
X4.9862Y-3.715
T7
X4.15Y-3.5
X4.15Y-6.05
X5.4Y-3.5
X5.4Y-6.05
T0
M30
