G04 #@! TF.FileFunction,Soldermask,Bot*
%FSLAX46Y46*%
G04 Gerber Fmt 4.6, Leading zero omitted, Abs format (unit mm)*
G04 Created by KiCad (PCBNEW 4.0.3-stable) date Wednesday, 09 '09e' November '09e' 2016 14:17:41*
%MOMM*%
%LPD*%
G01*
G04 APERTURE LIST*
%ADD10C,0.100000*%
%ADD11R,1.700000X1.700000*%
%ADD12C,1.700000*%
%ADD13R,1.797000X1.797000*%
%ADD14C,1.797000*%
%ADD15O,2.700000X2.000000*%
%ADD16C,1.924000*%
%ADD17C,3.100020*%
%ADD18C,1.901140*%
%ADD19C,2.398980*%
%ADD20C,2.900000*%
%ADD21R,2.900000X2.900000*%
%ADD22C,4.464000*%
%ADD23R,2.400000X2.300000*%
%ADD24C,2.300000*%
G04 APERTURE END LIST*
D10*
D11*
X106680000Y-137160000D03*
D12*
X106680000Y-142160000D03*
D11*
X106680000Y-144780000D03*
D12*
X106680000Y-149780000D03*
D11*
X125730000Y-104140000D03*
D12*
X125730000Y-106140000D03*
D13*
X109220000Y-104140000D03*
D14*
X109220000Y-111760000D03*
D13*
X106680000Y-104140000D03*
D14*
X106680000Y-111760000D03*
D15*
X113030000Y-106680000D03*
X113030000Y-109220000D03*
X113030000Y-111760000D03*
X113030000Y-114300000D03*
X113030000Y-116840000D03*
X113030000Y-119380000D03*
X113030000Y-121920000D03*
X113030000Y-124460000D03*
X113030000Y-127000000D03*
X113030000Y-129540000D03*
X113030000Y-132080000D03*
X113030000Y-134620000D03*
X113030000Y-137160000D03*
X113030000Y-139700000D03*
X120650000Y-139700000D03*
X120650000Y-137160000D03*
X120650000Y-134620000D03*
X120650000Y-132080000D03*
X120650000Y-129540000D03*
X120650000Y-127000000D03*
X120650000Y-124460000D03*
X120650000Y-121920000D03*
X120650000Y-119380000D03*
X120650000Y-116840000D03*
X120650000Y-114300000D03*
X120650000Y-111760000D03*
X120650000Y-109220000D03*
X120650000Y-106680000D03*
D16*
X121920000Y-99060000D03*
X119380000Y-99060000D03*
X119380000Y-97061020D03*
X121920000Y-97061020D03*
D17*
X126649480Y-94361000D03*
X114650520Y-94361000D03*
D18*
X106680000Y-131980940D03*
X106680000Y-127099060D03*
D19*
X106680000Y-114300000D03*
X106680000Y-121920000D03*
X106680000Y-93980000D03*
X106680000Y-101600000D03*
X109220000Y-114300000D03*
X109220000Y-121920000D03*
X109220000Y-93980000D03*
X109220000Y-101600000D03*
D20*
X134620000Y-94700000D03*
X134620000Y-99700000D03*
X134620000Y-104700000D03*
X134620000Y-109700000D03*
X134620000Y-114700000D03*
X134620000Y-119700000D03*
X134620000Y-124700000D03*
X134620000Y-129700000D03*
D21*
X134620000Y-139700000D03*
D20*
X134620000Y-134700000D03*
X131760000Y-148590000D03*
X126760000Y-148590000D03*
X121760000Y-148590000D03*
D21*
X111760000Y-148590000D03*
D20*
X116760000Y-148590000D03*
D22*
X105410000Y-88900000D03*
X137160000Y-88900000D03*
X105410000Y-153670000D03*
X137160000Y-153670000D03*
D23*
X125730000Y-137160000D03*
D24*
X125730000Y-139700000D03*
D19*
X124460000Y-133350000D03*
X124460000Y-125730000D03*
M02*
