G04 #@! TF.FileFunction,Legend,Top*
%FSLAX46Y46*%
G04 Gerber Fmt 4.6, Leading zero omitted, Abs format (unit mm)*
G04 Created by KiCad (PCBNEW 4.0.3-stable) date Wednesday, 09 '09e' November '09e' 2016 14:17:41*
%MOMM*%
%LPD*%
G01*
G04 APERTURE LIST*
%ADD10C,0.100000*%
%ADD11C,0.200000*%
%ADD12C,0.300000*%
%ADD13C,0.150000*%
G04 APERTURE END LIST*
D10*
D11*
X127404762Y-125092858D02*
X127452381Y-124997620D01*
X127452381Y-124807144D01*
X127404762Y-124711905D01*
X127309524Y-124664286D01*
X127261905Y-124664286D01*
X127166667Y-124711905D01*
X127119048Y-124807144D01*
X127119048Y-124950001D01*
X127071429Y-125045239D01*
X126976190Y-125092858D01*
X126928571Y-125092858D01*
X126833333Y-125045239D01*
X126785714Y-124950001D01*
X126785714Y-124807144D01*
X126833333Y-124711905D01*
X126785714Y-124378572D02*
X126785714Y-123997620D01*
X126452381Y-124235715D02*
X127309524Y-124235715D01*
X127404762Y-124188096D01*
X127452381Y-124092858D01*
X127452381Y-123997620D01*
X127452381Y-123664286D02*
X126785714Y-123664286D01*
X126976190Y-123664286D02*
X126880952Y-123616667D01*
X126833333Y-123569048D01*
X126785714Y-123473810D01*
X126785714Y-123378571D01*
X127404762Y-122664285D02*
X127452381Y-122759523D01*
X127452381Y-122950000D01*
X127404762Y-123045238D01*
X127309524Y-123092857D01*
X126928571Y-123092857D01*
X126833333Y-123045238D01*
X126785714Y-122950000D01*
X126785714Y-122759523D01*
X126833333Y-122664285D01*
X126928571Y-122616666D01*
X127023810Y-122616666D01*
X127119048Y-123092857D01*
X127404762Y-121807142D02*
X127452381Y-121902380D01*
X127452381Y-122092857D01*
X127404762Y-122188095D01*
X127309524Y-122235714D01*
X126928571Y-122235714D01*
X126833333Y-122188095D01*
X126785714Y-122092857D01*
X126785714Y-121902380D01*
X126833333Y-121807142D01*
X126928571Y-121759523D01*
X127023810Y-121759523D01*
X127119048Y-122235714D01*
X126785714Y-121473809D02*
X126785714Y-121092857D01*
X126452381Y-121330952D02*
X127309524Y-121330952D01*
X127404762Y-121283333D01*
X127452381Y-121188095D01*
X127452381Y-121092857D01*
X127452381Y-120616666D02*
X127404762Y-120711904D01*
X127357143Y-120759523D01*
X127261905Y-120807142D01*
X126976190Y-120807142D01*
X126880952Y-120759523D01*
X126833333Y-120711904D01*
X126785714Y-120616666D01*
X126785714Y-120473808D01*
X126833333Y-120378570D01*
X126880952Y-120330951D01*
X126976190Y-120283332D01*
X127261905Y-120283332D01*
X127357143Y-120330951D01*
X127404762Y-120378570D01*
X127452381Y-120473808D01*
X127452381Y-120616666D01*
X127452381Y-119854761D02*
X126785714Y-119854761D01*
X126880952Y-119854761D02*
X126833333Y-119807142D01*
X126785714Y-119711904D01*
X126785714Y-119569046D01*
X126833333Y-119473808D01*
X126928571Y-119426189D01*
X127452381Y-119426189D01*
X126928571Y-119426189D02*
X126833333Y-119378570D01*
X126785714Y-119283332D01*
X126785714Y-119140475D01*
X126833333Y-119045237D01*
X126928571Y-118997618D01*
X127452381Y-118997618D01*
X127452381Y-118378571D02*
X127404762Y-118473809D01*
X127357143Y-118521428D01*
X127261905Y-118569047D01*
X126976190Y-118569047D01*
X126880952Y-118521428D01*
X126833333Y-118473809D01*
X126785714Y-118378571D01*
X126785714Y-118235713D01*
X126833333Y-118140475D01*
X126880952Y-118092856D01*
X126976190Y-118045237D01*
X127261905Y-118045237D01*
X127357143Y-118092856D01*
X127404762Y-118140475D01*
X127452381Y-118235713D01*
X127452381Y-118378571D01*
X126785714Y-117616666D02*
X127452381Y-117616666D01*
X126880952Y-117616666D02*
X126833333Y-117569047D01*
X126785714Y-117473809D01*
X126785714Y-117330951D01*
X126833333Y-117235713D01*
X126928571Y-117188094D01*
X127452381Y-117188094D01*
X126976190Y-116092856D02*
X126928571Y-116140475D01*
X126880952Y-116235713D01*
X126880952Y-116330951D01*
X126928571Y-116426189D01*
X126976190Y-116473809D01*
X127071429Y-116521428D01*
X127166667Y-116521428D01*
X127261905Y-116473809D01*
X127309524Y-116426189D01*
X127357143Y-116330951D01*
X127357143Y-116235713D01*
X127309524Y-116140475D01*
X127261905Y-116092856D01*
X126880952Y-116092856D02*
X127261905Y-116092856D01*
X127309524Y-116045237D01*
X127309524Y-115997618D01*
X127261905Y-115902380D01*
X127166667Y-115854761D01*
X126928571Y-115854761D01*
X126785714Y-115949999D01*
X126690476Y-116092856D01*
X126642857Y-116283332D01*
X126690476Y-116473809D01*
X126785714Y-116616666D01*
X126928571Y-116711904D01*
X127119048Y-116759523D01*
X127309524Y-116711904D01*
X127452381Y-116616666D01*
X127547619Y-116473809D01*
X127595238Y-116283332D01*
X127547619Y-116092856D01*
X127452381Y-115949999D01*
X126785714Y-114997618D02*
X127595238Y-114997618D01*
X127690476Y-115045237D01*
X127738095Y-115092856D01*
X127785714Y-115188095D01*
X127785714Y-115330952D01*
X127738095Y-115426190D01*
X127404762Y-114997618D02*
X127452381Y-115092856D01*
X127452381Y-115283333D01*
X127404762Y-115378571D01*
X127357143Y-115426190D01*
X127261905Y-115473809D01*
X126976190Y-115473809D01*
X126880952Y-115426190D01*
X126833333Y-115378571D01*
X126785714Y-115283333D01*
X126785714Y-115092856D01*
X126833333Y-114997618D01*
X127452381Y-114521428D02*
X126785714Y-114521428D01*
X126880952Y-114521428D02*
X126833333Y-114473809D01*
X126785714Y-114378571D01*
X126785714Y-114235713D01*
X126833333Y-114140475D01*
X126928571Y-114092856D01*
X127452381Y-114092856D01*
X126928571Y-114092856D02*
X126833333Y-114045237D01*
X126785714Y-113949999D01*
X126785714Y-113807142D01*
X126833333Y-113711904D01*
X126928571Y-113664285D01*
X127452381Y-113664285D01*
X127452381Y-112759523D02*
X126928571Y-112759523D01*
X126833333Y-112807142D01*
X126785714Y-112902380D01*
X126785714Y-113092857D01*
X126833333Y-113188095D01*
X127404762Y-112759523D02*
X127452381Y-112854761D01*
X127452381Y-113092857D01*
X127404762Y-113188095D01*
X127309524Y-113235714D01*
X127214286Y-113235714D01*
X127119048Y-113188095D01*
X127071429Y-113092857D01*
X127071429Y-112854761D01*
X127023810Y-112759523D01*
X127452381Y-112283333D02*
X126785714Y-112283333D01*
X126452381Y-112283333D02*
X126500000Y-112330952D01*
X126547619Y-112283333D01*
X126500000Y-112235714D01*
X126452381Y-112283333D01*
X126547619Y-112283333D01*
X127452381Y-111664286D02*
X127404762Y-111759524D01*
X127309524Y-111807143D01*
X126452381Y-111807143D01*
X127357143Y-111283333D02*
X127404762Y-111235714D01*
X127452381Y-111283333D01*
X127404762Y-111330952D01*
X127357143Y-111283333D01*
X127452381Y-111283333D01*
X127404762Y-110378571D02*
X127452381Y-110473809D01*
X127452381Y-110664286D01*
X127404762Y-110759524D01*
X127357143Y-110807143D01*
X127261905Y-110854762D01*
X126976190Y-110854762D01*
X126880952Y-110807143D01*
X126833333Y-110759524D01*
X126785714Y-110664286D01*
X126785714Y-110473809D01*
X126833333Y-110378571D01*
X127452381Y-109807143D02*
X127404762Y-109902381D01*
X127357143Y-109950000D01*
X127261905Y-109997619D01*
X126976190Y-109997619D01*
X126880952Y-109950000D01*
X126833333Y-109902381D01*
X126785714Y-109807143D01*
X126785714Y-109664285D01*
X126833333Y-109569047D01*
X126880952Y-109521428D01*
X126976190Y-109473809D01*
X127261905Y-109473809D01*
X127357143Y-109521428D01*
X127404762Y-109569047D01*
X127452381Y-109664285D01*
X127452381Y-109807143D01*
X127452381Y-109045238D02*
X126785714Y-109045238D01*
X126880952Y-109045238D02*
X126833333Y-108997619D01*
X126785714Y-108902381D01*
X126785714Y-108759523D01*
X126833333Y-108664285D01*
X126928571Y-108616666D01*
X127452381Y-108616666D01*
X126928571Y-108616666D02*
X126833333Y-108569047D01*
X126785714Y-108473809D01*
X126785714Y-108330952D01*
X126833333Y-108235714D01*
X126928571Y-108188095D01*
X127452381Y-108188095D01*
D12*
X130901429Y-155475714D02*
X130830000Y-155547143D01*
X130615714Y-155618571D01*
X130472857Y-155618571D01*
X130258572Y-155547143D01*
X130115714Y-155404286D01*
X130044286Y-155261429D01*
X129972857Y-154975714D01*
X129972857Y-154761429D01*
X130044286Y-154475714D01*
X130115714Y-154332857D01*
X130258572Y-154190000D01*
X130472857Y-154118571D01*
X130615714Y-154118571D01*
X130830000Y-154190000D01*
X130901429Y-154261429D01*
X131830000Y-154118571D02*
X132115714Y-154118571D01*
X132258572Y-154190000D01*
X132401429Y-154332857D01*
X132472857Y-154618571D01*
X132472857Y-155118571D01*
X132401429Y-155404286D01*
X132258572Y-155547143D01*
X132115714Y-155618571D01*
X131830000Y-155618571D01*
X131687143Y-155547143D01*
X131544286Y-155404286D01*
X131472857Y-155118571D01*
X131472857Y-154618571D01*
X131544286Y-154332857D01*
X131687143Y-154190000D01*
X131830000Y-154118571D01*
X133115715Y-155618571D02*
X133115715Y-154118571D01*
X133615715Y-155190000D01*
X134115715Y-154118571D01*
X134115715Y-155618571D01*
X133242857Y-90856428D02*
X133314286Y-90642142D01*
X133385714Y-90570714D01*
X133528571Y-90499285D01*
X133742857Y-90499285D01*
X133885714Y-90570714D01*
X133957143Y-90642142D01*
X134028571Y-90785000D01*
X134028571Y-91356428D01*
X132528571Y-91356428D01*
X132528571Y-90856428D01*
X132600000Y-90713571D01*
X132671429Y-90642142D01*
X132814286Y-90570714D01*
X132957143Y-90570714D01*
X133100000Y-90642142D01*
X133171429Y-90713571D01*
X133242857Y-90856428D01*
X133242857Y-91356428D01*
X134028571Y-89070714D02*
X134028571Y-89927857D01*
X134028571Y-89499285D02*
X132528571Y-89499285D01*
X132742857Y-89642142D01*
X132885714Y-89785000D01*
X132957143Y-89927857D01*
X132528571Y-88142143D02*
X132528571Y-87999286D01*
X132600000Y-87856429D01*
X132671429Y-87785000D01*
X132814286Y-87713571D01*
X133100000Y-87642143D01*
X133457143Y-87642143D01*
X133742857Y-87713571D01*
X133885714Y-87785000D01*
X133957143Y-87856429D01*
X134028571Y-87999286D01*
X134028571Y-88142143D01*
X133957143Y-88285000D01*
X133885714Y-88356429D01*
X133742857Y-88427857D01*
X133457143Y-88499286D01*
X133100000Y-88499286D01*
X132814286Y-88427857D01*
X132671429Y-88356429D01*
X132600000Y-88285000D01*
X132528571Y-88142143D01*
X137052857Y-145387142D02*
X137124286Y-145172856D01*
X137195714Y-145101428D01*
X137338571Y-145029999D01*
X137552857Y-145029999D01*
X137695714Y-145101428D01*
X137767143Y-145172856D01*
X137838571Y-145315714D01*
X137838571Y-145887142D01*
X136338571Y-145887142D01*
X136338571Y-145387142D01*
X136410000Y-145244285D01*
X136481429Y-145172856D01*
X136624286Y-145101428D01*
X136767143Y-145101428D01*
X136910000Y-145172856D01*
X136981429Y-145244285D01*
X137052857Y-145387142D01*
X137052857Y-145887142D01*
X137838571Y-143601428D02*
X137838571Y-144458571D01*
X137838571Y-144029999D02*
X136338571Y-144029999D01*
X136552857Y-144172856D01*
X136695714Y-144315714D01*
X136767143Y-144458571D01*
X122384286Y-155618571D02*
X121670000Y-155618571D01*
X121670000Y-154118571D01*
X127464286Y-155618571D02*
X126964286Y-154904286D01*
X126607143Y-155618571D02*
X126607143Y-154118571D01*
X127178571Y-154118571D01*
X127321429Y-154190000D01*
X127392857Y-154261429D01*
X127464286Y-154404286D01*
X127464286Y-154618571D01*
X127392857Y-154761429D01*
X127321429Y-154832857D01*
X127178571Y-154904286D01*
X126607143Y-154904286D01*
X116447143Y-155618571D02*
X116447143Y-154118571D01*
X116804286Y-154118571D01*
X117018571Y-154190000D01*
X117161429Y-154332857D01*
X117232857Y-154475714D01*
X117304286Y-154761429D01*
X117304286Y-154975714D01*
X117232857Y-155261429D01*
X117161429Y-155404286D01*
X117018571Y-155547143D01*
X116804286Y-155618571D01*
X116447143Y-155618571D01*
X111331429Y-154118571D02*
X111331429Y-155332857D01*
X111402857Y-155475714D01*
X111474286Y-155547143D01*
X111617143Y-155618571D01*
X111902857Y-155618571D01*
X112045715Y-155547143D01*
X112117143Y-155475714D01*
X112188572Y-155332857D01*
X112188572Y-154118571D01*
D11*
X124912381Y-123664287D02*
X123912381Y-123664287D01*
X123912381Y-123283334D01*
X123960000Y-123188096D01*
X124007619Y-123140477D01*
X124102857Y-123092858D01*
X124245714Y-123092858D01*
X124340952Y-123140477D01*
X124388571Y-123188096D01*
X124436190Y-123283334D01*
X124436190Y-123664287D01*
X124912381Y-122235715D02*
X124388571Y-122235715D01*
X124293333Y-122283334D01*
X124245714Y-122378572D01*
X124245714Y-122569049D01*
X124293333Y-122664287D01*
X124864762Y-122235715D02*
X124912381Y-122330953D01*
X124912381Y-122569049D01*
X124864762Y-122664287D01*
X124769524Y-122711906D01*
X124674286Y-122711906D01*
X124579048Y-122664287D01*
X124531429Y-122569049D01*
X124531429Y-122330953D01*
X124483810Y-122235715D01*
X124245714Y-121759525D02*
X124912381Y-121759525D01*
X124340952Y-121759525D02*
X124293333Y-121711906D01*
X124245714Y-121616668D01*
X124245714Y-121473810D01*
X124293333Y-121378572D01*
X124388571Y-121330953D01*
X124912381Y-121330953D01*
X124864762Y-120426191D02*
X124912381Y-120521429D01*
X124912381Y-120711906D01*
X124864762Y-120807144D01*
X124817143Y-120854763D01*
X124721905Y-120902382D01*
X124436190Y-120902382D01*
X124340952Y-120854763D01*
X124293333Y-120807144D01*
X124245714Y-120711906D01*
X124245714Y-120521429D01*
X124293333Y-120426191D01*
X124912381Y-119569048D02*
X124388571Y-119569048D01*
X124293333Y-119616667D01*
X124245714Y-119711905D01*
X124245714Y-119902382D01*
X124293333Y-119997620D01*
X124864762Y-119569048D02*
X124912381Y-119664286D01*
X124912381Y-119902382D01*
X124864762Y-119997620D01*
X124769524Y-120045239D01*
X124674286Y-120045239D01*
X124579048Y-119997620D01*
X124531429Y-119902382D01*
X124531429Y-119664286D01*
X124483810Y-119569048D01*
X124912381Y-118664286D02*
X123912381Y-118664286D01*
X124864762Y-118664286D02*
X124912381Y-118759524D01*
X124912381Y-118950001D01*
X124864762Y-119045239D01*
X124817143Y-119092858D01*
X124721905Y-119140477D01*
X124436190Y-119140477D01*
X124340952Y-119092858D01*
X124293333Y-119045239D01*
X124245714Y-118950001D01*
X124245714Y-118759524D01*
X124293333Y-118664286D01*
X124912381Y-117759524D02*
X124388571Y-117759524D01*
X124293333Y-117807143D01*
X124245714Y-117902381D01*
X124245714Y-118092858D01*
X124293333Y-118188096D01*
X124864762Y-117759524D02*
X124912381Y-117854762D01*
X124912381Y-118092858D01*
X124864762Y-118188096D01*
X124769524Y-118235715D01*
X124674286Y-118235715D01*
X124579048Y-118188096D01*
X124531429Y-118092858D01*
X124531429Y-117854762D01*
X124483810Y-117759524D01*
X124912381Y-117283334D02*
X124245714Y-117283334D01*
X124436190Y-117283334D02*
X124340952Y-117235715D01*
X124293333Y-117188096D01*
X124245714Y-117092858D01*
X124245714Y-116997619D01*
X124912381Y-116664286D02*
X124245714Y-116664286D01*
X123912381Y-116664286D02*
X123960000Y-116711905D01*
X124007619Y-116664286D01*
X123960000Y-116616667D01*
X123912381Y-116664286D01*
X124007619Y-116664286D01*
X124912381Y-115759524D02*
X124388571Y-115759524D01*
X124293333Y-115807143D01*
X124245714Y-115902381D01*
X124245714Y-116092858D01*
X124293333Y-116188096D01*
X124864762Y-115759524D02*
X124912381Y-115854762D01*
X124912381Y-116092858D01*
X124864762Y-116188096D01*
X124769524Y-116235715D01*
X124674286Y-116235715D01*
X124579048Y-116188096D01*
X124531429Y-116092858D01*
X124531429Y-115854762D01*
X124483810Y-115759524D01*
X124864762Y-115330953D02*
X124912381Y-115188096D01*
X124912381Y-114950000D01*
X124864762Y-114854762D01*
X124817143Y-114807143D01*
X124721905Y-114759524D01*
X124626667Y-114759524D01*
X124531429Y-114807143D01*
X124483810Y-114854762D01*
X124436190Y-114950000D01*
X124388571Y-115140477D01*
X124340952Y-115235715D01*
X124293333Y-115283334D01*
X124198095Y-115330953D01*
X124102857Y-115330953D01*
X124007619Y-115283334D01*
X123960000Y-115235715D01*
X123912381Y-115140477D01*
X123912381Y-114902381D01*
X123960000Y-114759524D01*
X124245714Y-114473810D02*
X124245714Y-114092858D01*
X123912381Y-114330953D02*
X124769524Y-114330953D01*
X124864762Y-114283334D01*
X124912381Y-114188096D01*
X124912381Y-114092858D01*
X124912381Y-113759524D02*
X124245714Y-113759524D01*
X123912381Y-113759524D02*
X123960000Y-113807143D01*
X124007619Y-113759524D01*
X123960000Y-113711905D01*
X123912381Y-113759524D01*
X124007619Y-113759524D01*
X124864762Y-112854762D02*
X124912381Y-112950000D01*
X124912381Y-113140477D01*
X124864762Y-113235715D01*
X124817143Y-113283334D01*
X124721905Y-113330953D01*
X124436190Y-113330953D01*
X124340952Y-113283334D01*
X124293333Y-113235715D01*
X124245714Y-113140477D01*
X124245714Y-112950000D01*
X124293333Y-112854762D01*
X124912381Y-112426191D02*
X123912381Y-112426191D01*
X124531429Y-112330953D02*
X124912381Y-112045238D01*
X124245714Y-112045238D02*
X124626667Y-112426191D01*
X124245714Y-110950000D02*
X124912381Y-110711905D01*
X124245714Y-110473809D01*
X124912381Y-109569047D02*
X124912381Y-110140476D01*
X124912381Y-109854762D02*
X123912381Y-109854762D01*
X124055238Y-109950000D01*
X124150476Y-110045238D01*
X124198095Y-110140476D01*
X124817143Y-109140476D02*
X124864762Y-109092857D01*
X124912381Y-109140476D01*
X124864762Y-109188095D01*
X124817143Y-109140476D01*
X124912381Y-109140476D01*
X123912381Y-108473810D02*
X123912381Y-108378571D01*
X123960000Y-108283333D01*
X124007619Y-108235714D01*
X124102857Y-108188095D01*
X124293333Y-108140476D01*
X124531429Y-108140476D01*
X124721905Y-108188095D01*
X124817143Y-108235714D01*
X124864762Y-108283333D01*
X124912381Y-108378571D01*
X124912381Y-108473810D01*
X124864762Y-108569048D01*
X124817143Y-108616667D01*
X124721905Y-108664286D01*
X124531429Y-108711905D01*
X124293333Y-108711905D01*
X124102857Y-108664286D01*
X124007619Y-108616667D01*
X123960000Y-108569048D01*
X123912381Y-108473810D01*
D13*
X107680000Y-136160000D02*
X107680000Y-143160000D01*
X107680000Y-143160000D02*
X105680000Y-143160000D01*
X105680000Y-143160000D02*
X105680000Y-136160000D01*
X105680000Y-136160000D02*
X107680000Y-136160000D01*
X107680000Y-143780000D02*
X107680000Y-150780000D01*
X107680000Y-150780000D02*
X105680000Y-150780000D01*
X105680000Y-150780000D02*
X105680000Y-143780000D01*
X105680000Y-143780000D02*
X107680000Y-143780000D01*
X128229000Y-105215000D02*
X123231000Y-105215000D01*
X128221000Y-105355000D02*
X125884000Y-105355000D01*
X125576000Y-105355000D02*
X123239000Y-105355000D01*
X128205000Y-105495000D02*
X126203000Y-105495000D01*
X125257000Y-105495000D02*
X123255000Y-105495000D01*
X128181000Y-105635000D02*
X126350000Y-105635000D01*
X125110000Y-105635000D02*
X123279000Y-105635000D01*
X128148000Y-105775000D02*
X126442000Y-105775000D01*
X125018000Y-105775000D02*
X123312000Y-105775000D01*
X128107000Y-105915000D02*
X126498000Y-105915000D01*
X124962000Y-105915000D02*
X123353000Y-105915000D01*
X128057000Y-106055000D02*
X126525000Y-106055000D01*
X124935000Y-106055000D02*
X123403000Y-106055000D01*
X127996000Y-106195000D02*
X126528000Y-106195000D01*
X124932000Y-106195000D02*
X123464000Y-106195000D01*
X127926000Y-106335000D02*
X126506000Y-106335000D01*
X124954000Y-106335000D02*
X123534000Y-106335000D01*
X127844000Y-106475000D02*
X126456000Y-106475000D01*
X125004000Y-106475000D02*
X123616000Y-106475000D01*
X127749000Y-106615000D02*
X126374000Y-106615000D01*
X125086000Y-106615000D02*
X123711000Y-106615000D01*
X127638000Y-106755000D02*
X126242000Y-106755000D01*
X125218000Y-106755000D02*
X123822000Y-106755000D01*
X127510000Y-106895000D02*
X125995000Y-106895000D01*
X125465000Y-106895000D02*
X123950000Y-106895000D01*
X127361000Y-107035000D02*
X124099000Y-107035000D01*
X127182000Y-107175000D02*
X124278000Y-107175000D01*
X126963000Y-107315000D02*
X124497000Y-107315000D01*
X126674000Y-107455000D02*
X124786000Y-107455000D01*
X126202000Y-107595000D02*
X125258000Y-107595000D01*
X126530000Y-106140000D02*
G75*
G03X126530000Y-106140000I-800000J0D01*
G01*
X128267500Y-105140000D02*
G75*
G03X128267500Y-105140000I-2537500J0D01*
G01*
X109220000Y-104140000D02*
X109220000Y-104902000D01*
X109220000Y-104902000D02*
X108204000Y-104902000D01*
X108204000Y-104902000D02*
X108204000Y-110998000D01*
X108204000Y-110998000D02*
X109220000Y-110998000D01*
X109220000Y-110998000D02*
X109220000Y-111760000D01*
X109220000Y-110998000D02*
X110236000Y-110998000D01*
X110236000Y-110998000D02*
X110236000Y-104902000D01*
X110236000Y-104902000D02*
X109220000Y-104902000D01*
X108204000Y-105410000D02*
X110236000Y-105410000D01*
X110236000Y-105664000D02*
X108204000Y-105664000D01*
X106680000Y-104140000D02*
X106680000Y-104902000D01*
X106680000Y-104902000D02*
X105664000Y-104902000D01*
X105664000Y-104902000D02*
X105664000Y-110998000D01*
X105664000Y-110998000D02*
X106680000Y-110998000D01*
X106680000Y-110998000D02*
X106680000Y-111760000D01*
X106680000Y-110998000D02*
X107696000Y-110998000D01*
X107696000Y-110998000D02*
X107696000Y-104902000D01*
X107696000Y-104902000D02*
X106680000Y-104902000D01*
X105664000Y-105410000D02*
X107696000Y-105410000D01*
X107696000Y-105664000D02*
X105664000Y-105664000D01*
X113165000Y-104385000D02*
X113165000Y-105655000D01*
X120515000Y-104385000D02*
X120515000Y-105655000D01*
X120515000Y-141995000D02*
X120515000Y-140725000D01*
X113165000Y-141995000D02*
X113165000Y-140725000D01*
X113165000Y-104385000D02*
X120515000Y-104385000D01*
X113165000Y-141995000D02*
X120515000Y-141995000D01*
X113165000Y-105655000D02*
X111880000Y-105655000D01*
X126746000Y-92710000D02*
X126746000Y-84074000D01*
X126746000Y-101092000D02*
X126746000Y-96012000D01*
X114554000Y-92710000D02*
X114554000Y-84074000D01*
X114554000Y-101092000D02*
X114554000Y-96012000D01*
X114554000Y-84074000D02*
X126746000Y-84074000D01*
X126746000Y-101092000D02*
X114554000Y-101092000D01*
X105679240Y-124841000D02*
X106080560Y-124640340D01*
X106080560Y-124640340D02*
X106680000Y-124538740D01*
X106680000Y-124538740D02*
X107180380Y-124640340D01*
X107180380Y-124640340D02*
X107878880Y-125039120D01*
X107878880Y-125039120D02*
X108280200Y-125641100D01*
X108280200Y-125641100D02*
X108480860Y-126240540D01*
X108480860Y-126240540D02*
X108480860Y-132839460D01*
X108480860Y-132839460D02*
X108280200Y-133540500D01*
X108280200Y-133540500D02*
X107980480Y-133939280D01*
X107980480Y-133939280D02*
X107480100Y-134340600D01*
X107480100Y-134340600D02*
X106880660Y-134541260D01*
X106880660Y-134541260D02*
X106380280Y-134541260D01*
X106380280Y-134541260D02*
X105879900Y-134340600D01*
X105879900Y-134340600D02*
X105280460Y-133840220D01*
X105280460Y-133840220D02*
X104980740Y-133339840D01*
X104980740Y-133339840D02*
X104879140Y-132839460D01*
X104879140Y-132740400D02*
X104879140Y-126138940D01*
X104879140Y-126138940D02*
X104980740Y-125740160D01*
X104980740Y-125740160D02*
X105280460Y-125239780D01*
X105280460Y-125239780D02*
X105780840Y-124739400D01*
X104350820Y-132730240D02*
X104399080Y-133189980D01*
X104399080Y-133189980D02*
X104510840Y-133588760D01*
X104510840Y-133588760D02*
X104729280Y-134020560D01*
X104729280Y-134020560D02*
X104960420Y-134310120D01*
X104960420Y-134310120D02*
X105310940Y-134640320D01*
X105310940Y-134640320D02*
X105849420Y-134929880D01*
X105849420Y-134929880D02*
X106448860Y-135059420D01*
X106448860Y-135059420D02*
X106959400Y-135059420D01*
X106959400Y-135059420D02*
X107660440Y-134889240D01*
X107660440Y-134889240D02*
X108249720Y-134490460D01*
X108249720Y-134490460D02*
X108620560Y-134030720D01*
X108620560Y-134030720D02*
X108828840Y-133609080D01*
X108828840Y-133609080D02*
X108988860Y-133159500D01*
X108988860Y-133159500D02*
X109019340Y-132720080D01*
X108800900Y-125379480D02*
X108579920Y-125001020D01*
X108579920Y-125001020D02*
X108300520Y-124680980D01*
X108300520Y-124680980D02*
X107970320Y-124429520D01*
X107970320Y-124429520D02*
X107419140Y-124129800D01*
X107419140Y-124129800D02*
X106949240Y-124020580D01*
X106949240Y-124020580D02*
X106489500Y-124000260D01*
X106489500Y-124000260D02*
X106029760Y-124089160D01*
X106029760Y-124089160D02*
X105580180Y-124279660D01*
X105580180Y-124279660D02*
X105110280Y-124640340D01*
X105110280Y-124640340D02*
X104790240Y-124990860D01*
X104790240Y-124990860D02*
X104559100Y-125379480D01*
X104559100Y-125379480D02*
X104419400Y-125808740D01*
X104419400Y-125808740D02*
X104350820Y-126250700D01*
X109009180Y-132740400D02*
X109009180Y-126288800D01*
X109009180Y-126288800D02*
X108971080Y-125869700D01*
X108971080Y-125869700D02*
X108800900Y-125379480D01*
X104350820Y-132740400D02*
X104350820Y-126288800D01*
X107950000Y-115570000D02*
X107950000Y-120650000D01*
X107950000Y-120650000D02*
X105410000Y-120650000D01*
X105410000Y-120650000D02*
X105410000Y-115570000D01*
X105410000Y-115570000D02*
X107950000Y-115570000D01*
X107950000Y-95250000D02*
X107950000Y-100330000D01*
X107950000Y-100330000D02*
X105410000Y-100330000D01*
X105410000Y-100330000D02*
X105410000Y-95250000D01*
X105410000Y-95250000D02*
X107950000Y-95250000D01*
X110490000Y-115570000D02*
X110490000Y-120650000D01*
X110490000Y-120650000D02*
X107950000Y-120650000D01*
X107950000Y-120650000D02*
X107950000Y-115570000D01*
X107950000Y-115570000D02*
X110490000Y-115570000D01*
X110490000Y-95250000D02*
X110490000Y-100330000D01*
X110490000Y-100330000D02*
X107950000Y-100330000D01*
X107950000Y-100330000D02*
X107950000Y-95250000D01*
X107950000Y-95250000D02*
X110490000Y-95250000D01*
X136720000Y-94700000D02*
G75*
G03X136720000Y-94700000I-2000000J0D01*
G01*
X138720000Y-97200000D02*
X139220000Y-97200000D01*
X138720000Y-102200000D02*
X139220000Y-102200000D01*
X136720000Y-99700000D02*
G75*
G03X136720000Y-99700000I-2000000J0D01*
G01*
X136720000Y-104700000D02*
G75*
G03X136720000Y-104700000I-2000000J0D01*
G01*
X138720000Y-107200000D02*
X139220000Y-107200000D01*
X138720000Y-112200000D02*
X139220000Y-112200000D01*
X136720000Y-109700000D02*
G75*
G03X136720000Y-109700000I-2000000J0D01*
G01*
X136720000Y-114700000D02*
G75*
G03X136720000Y-114700000I-2000000J0D01*
G01*
X138720000Y-117200000D02*
X139220000Y-117200000D01*
X138720000Y-122200000D02*
X139220000Y-122200000D01*
X136720000Y-119700000D02*
G75*
G03X136720000Y-119700000I-2000000J0D01*
G01*
X138720000Y-127200000D02*
X139220000Y-127200000D01*
X136720000Y-124700000D02*
G75*
G03X136720000Y-124700000I-2000000J0D01*
G01*
X136720000Y-129700000D02*
G75*
G03X136720000Y-129700000I-2000000J0D01*
G01*
X138720000Y-132200000D02*
X139220000Y-132200000D01*
X138720000Y-137200000D02*
X139220000Y-137200000D01*
X136720000Y-134700000D02*
G75*
G03X136720000Y-134700000I-2000000J0D01*
G01*
X136720000Y-139700000D02*
G75*
G03X136720000Y-139700000I-2000000J0D01*
G01*
X137220000Y-142200000D02*
X137220000Y-92200000D01*
X132320000Y-142200000D02*
X132320000Y-92200000D01*
X138720000Y-142200000D02*
X138720000Y-92200000D01*
X139220000Y-142200000D02*
X139220000Y-92200000D01*
X139220000Y-92200000D02*
X129420000Y-92200000D01*
X129420000Y-92200000D02*
X129420000Y-142200000D01*
X129420000Y-142200000D02*
X139220000Y-142200000D01*
X129260000Y-152690000D02*
X129260000Y-153190000D01*
X133760000Y-148690000D02*
G75*
G03X133760000Y-148690000I-2000000J0D01*
G01*
X124260000Y-152690000D02*
X124260000Y-153190000D01*
X128760000Y-148690000D02*
G75*
G03X128760000Y-148690000I-2000000J0D01*
G01*
X123760000Y-148690000D02*
G75*
G03X123760000Y-148690000I-2000000J0D01*
G01*
X119260000Y-152690000D02*
X119260000Y-153190000D01*
X114260000Y-152690000D02*
X114260000Y-153190000D01*
X118760000Y-148690000D02*
G75*
G03X118760000Y-148690000I-2000000J0D01*
G01*
X113760000Y-148690000D02*
G75*
G03X113760000Y-148690000I-2000000J0D01*
G01*
X109260000Y-151190000D02*
X134260000Y-151190000D01*
X109260000Y-146290000D02*
X134260000Y-146290000D01*
X109260000Y-152690000D02*
X134260000Y-152690000D01*
X109260000Y-153190000D02*
X134260000Y-153190000D01*
X134260000Y-153190000D02*
X134260000Y-143390000D01*
X134260000Y-143390000D02*
X109260000Y-143390000D01*
X109260000Y-143390000D02*
X109260000Y-153190000D01*
X107696000Y-88900000D02*
G75*
G03X107696000Y-88900000I-2286000J0D01*
G01*
X139446000Y-88900000D02*
G75*
G03X139446000Y-88900000I-2286000J0D01*
G01*
X107696000Y-153670000D02*
G75*
G03X107696000Y-153670000I-2286000J0D01*
G01*
X139446000Y-153670000D02*
G75*
G03X139446000Y-153670000I-2286000J0D01*
G01*
X124205096Y-135945112D02*
G75*
G03X127230000Y-135930000I1524904J-2484888D01*
G01*
X124230000Y-135930000D02*
X127230000Y-135930000D01*
X128247936Y-138430000D02*
G75*
G03X128247936Y-138430000I-2517936J0D01*
G01*
X123190000Y-132080000D02*
X123190000Y-127000000D01*
X123190000Y-127000000D02*
X125730000Y-127000000D01*
X125730000Y-127000000D02*
X125730000Y-132080000D01*
X125730000Y-132080000D02*
X123190000Y-132080000D01*
X107037143Y-139866666D02*
X107084762Y-139914285D01*
X107132381Y-140057142D01*
X107132381Y-140152380D01*
X107084762Y-140295238D01*
X106989524Y-140390476D01*
X106894286Y-140438095D01*
X106703810Y-140485714D01*
X106560952Y-140485714D01*
X106370476Y-140438095D01*
X106275238Y-140390476D01*
X106180000Y-140295238D01*
X106132381Y-140152380D01*
X106132381Y-140057142D01*
X106180000Y-139914285D01*
X106227619Y-139866666D01*
X107132381Y-138914285D02*
X107132381Y-139485714D01*
X107132381Y-139200000D02*
X106132381Y-139200000D01*
X106275238Y-139295238D01*
X106370476Y-139390476D01*
X106418095Y-139485714D01*
X107037143Y-147486666D02*
X107084762Y-147534285D01*
X107132381Y-147677142D01*
X107132381Y-147772380D01*
X107084762Y-147915238D01*
X106989524Y-148010476D01*
X106894286Y-148058095D01*
X106703810Y-148105714D01*
X106560952Y-148105714D01*
X106370476Y-148058095D01*
X106275238Y-148010476D01*
X106180000Y-147915238D01*
X106132381Y-147772380D01*
X106132381Y-147677142D01*
X106180000Y-147534285D01*
X106227619Y-147486666D01*
X106227619Y-147105714D02*
X106180000Y-147058095D01*
X106132381Y-146962857D01*
X106132381Y-146724761D01*
X106180000Y-146629523D01*
X106227619Y-146581904D01*
X106322857Y-146534285D01*
X106418095Y-146534285D01*
X106560952Y-146581904D01*
X107132381Y-147153333D01*
X107132381Y-146534285D01*
X122912143Y-103036666D02*
X122959762Y-103084285D01*
X123007381Y-103227142D01*
X123007381Y-103322380D01*
X122959762Y-103465238D01*
X122864524Y-103560476D01*
X122769286Y-103608095D01*
X122578810Y-103655714D01*
X122435952Y-103655714D01*
X122245476Y-103608095D01*
X122150238Y-103560476D01*
X122055000Y-103465238D01*
X122007381Y-103322380D01*
X122007381Y-103227142D01*
X122055000Y-103084285D01*
X122102619Y-103036666D01*
X122007381Y-102703333D02*
X122007381Y-102084285D01*
X122388333Y-102417619D01*
X122388333Y-102274761D01*
X122435952Y-102179523D01*
X122483571Y-102131904D01*
X122578810Y-102084285D01*
X122816905Y-102084285D01*
X122912143Y-102131904D01*
X122959762Y-102179523D01*
X123007381Y-102274761D01*
X123007381Y-102560476D01*
X122959762Y-102655714D01*
X122912143Y-102703333D01*
X109672381Y-108688095D02*
X108672381Y-108688095D01*
X108672381Y-108450000D01*
X108720000Y-108307142D01*
X108815238Y-108211904D01*
X108910476Y-108164285D01*
X109100952Y-108116666D01*
X109243810Y-108116666D01*
X109434286Y-108164285D01*
X109529524Y-108211904D01*
X109624762Y-108307142D01*
X109672381Y-108450000D01*
X109672381Y-108688095D01*
X109672381Y-107164285D02*
X109672381Y-107735714D01*
X109672381Y-107450000D02*
X108672381Y-107450000D01*
X108815238Y-107545238D01*
X108910476Y-107640476D01*
X108958095Y-107735714D01*
X107132381Y-108688095D02*
X106132381Y-108688095D01*
X106132381Y-108450000D01*
X106180000Y-108307142D01*
X106275238Y-108211904D01*
X106370476Y-108164285D01*
X106560952Y-108116666D01*
X106703810Y-108116666D01*
X106894286Y-108164285D01*
X106989524Y-108211904D01*
X107084762Y-108307142D01*
X107132381Y-108450000D01*
X107132381Y-108688095D01*
X106227619Y-107735714D02*
X106180000Y-107688095D01*
X106132381Y-107592857D01*
X106132381Y-107354761D01*
X106180000Y-107259523D01*
X106227619Y-107211904D01*
X106322857Y-107164285D01*
X106418095Y-107164285D01*
X106560952Y-107211904D01*
X107132381Y-107783333D01*
X107132381Y-107164285D01*
X118403810Y-103322381D02*
X118403810Y-102322381D01*
X119451429Y-103227143D02*
X119403810Y-103274762D01*
X119260953Y-103322381D01*
X119165715Y-103322381D01*
X119022857Y-103274762D01*
X118927619Y-103179524D01*
X118880000Y-103084286D01*
X118832381Y-102893810D01*
X118832381Y-102750952D01*
X118880000Y-102560476D01*
X118927619Y-102465238D01*
X119022857Y-102370000D01*
X119165715Y-102322381D01*
X119260953Y-102322381D01*
X119403810Y-102370000D01*
X119451429Y-102417619D01*
X120403810Y-103322381D02*
X119832381Y-103322381D01*
X120118095Y-103322381D02*
X120118095Y-102322381D01*
X120022857Y-102465238D01*
X119927619Y-102560476D01*
X119832381Y-102608095D01*
X114831905Y-103322381D02*
X114831905Y-102322381D01*
X115212858Y-102322381D01*
X115308096Y-102370000D01*
X115355715Y-102417619D01*
X115403334Y-102512857D01*
X115403334Y-102655714D01*
X115355715Y-102750952D01*
X115308096Y-102798571D01*
X115212858Y-102846190D01*
X114831905Y-102846190D01*
X115736667Y-102322381D02*
X116355715Y-102322381D01*
X116022381Y-102703333D01*
X116165239Y-102703333D01*
X116260477Y-102750952D01*
X116308096Y-102798571D01*
X116355715Y-102893810D01*
X116355715Y-103131905D01*
X116308096Y-103227143D01*
X116260477Y-103274762D01*
X116165239Y-103322381D01*
X115879524Y-103322381D01*
X115784286Y-103274762D01*
X115736667Y-103227143D01*
X107227619Y-129635238D02*
X107180000Y-129730476D01*
X107084762Y-129825714D01*
X106941905Y-129968571D01*
X106894286Y-130063810D01*
X106894286Y-130159048D01*
X107132381Y-130111429D02*
X107084762Y-130206667D01*
X106989524Y-130301905D01*
X106799048Y-130349524D01*
X106465714Y-130349524D01*
X106275238Y-130301905D01*
X106180000Y-130206667D01*
X106132381Y-130111429D01*
X106132381Y-129920952D01*
X106180000Y-129825714D01*
X106275238Y-129730476D01*
X106465714Y-129682857D01*
X106799048Y-129682857D01*
X106989524Y-129730476D01*
X107084762Y-129825714D01*
X107132381Y-129920952D01*
X107132381Y-130111429D01*
X107132381Y-128730476D02*
X107132381Y-129301905D01*
X107132381Y-129016191D02*
X106132381Y-129016191D01*
X106275238Y-129111429D01*
X106370476Y-129206667D01*
X106418095Y-129301905D01*
X107132381Y-118276666D02*
X106656190Y-118610000D01*
X107132381Y-118848095D02*
X106132381Y-118848095D01*
X106132381Y-118467142D01*
X106180000Y-118371904D01*
X106227619Y-118324285D01*
X106322857Y-118276666D01*
X106465714Y-118276666D01*
X106560952Y-118324285D01*
X106608571Y-118371904D01*
X106656190Y-118467142D01*
X106656190Y-118848095D01*
X107132381Y-117324285D02*
X107132381Y-117895714D01*
X107132381Y-117610000D02*
X106132381Y-117610000D01*
X106275238Y-117705238D01*
X106370476Y-117800476D01*
X106418095Y-117895714D01*
X107132381Y-97956666D02*
X106656190Y-98290000D01*
X107132381Y-98528095D02*
X106132381Y-98528095D01*
X106132381Y-98147142D01*
X106180000Y-98051904D01*
X106227619Y-98004285D01*
X106322857Y-97956666D01*
X106465714Y-97956666D01*
X106560952Y-98004285D01*
X106608571Y-98051904D01*
X106656190Y-98147142D01*
X106656190Y-98528095D01*
X106132381Y-97051904D02*
X106132381Y-97528095D01*
X106608571Y-97575714D01*
X106560952Y-97528095D01*
X106513333Y-97432857D01*
X106513333Y-97194761D01*
X106560952Y-97099523D01*
X106608571Y-97051904D01*
X106703810Y-97004285D01*
X106941905Y-97004285D01*
X107037143Y-97051904D01*
X107084762Y-97099523D01*
X107132381Y-97194761D01*
X107132381Y-97432857D01*
X107084762Y-97528095D01*
X107037143Y-97575714D01*
X109672381Y-118276666D02*
X109196190Y-118610000D01*
X109672381Y-118848095D02*
X108672381Y-118848095D01*
X108672381Y-118467142D01*
X108720000Y-118371904D01*
X108767619Y-118324285D01*
X108862857Y-118276666D01*
X109005714Y-118276666D01*
X109100952Y-118324285D01*
X109148571Y-118371904D01*
X109196190Y-118467142D01*
X109196190Y-118848095D01*
X108672381Y-117419523D02*
X108672381Y-117610000D01*
X108720000Y-117705238D01*
X108767619Y-117752857D01*
X108910476Y-117848095D01*
X109100952Y-117895714D01*
X109481905Y-117895714D01*
X109577143Y-117848095D01*
X109624762Y-117800476D01*
X109672381Y-117705238D01*
X109672381Y-117514761D01*
X109624762Y-117419523D01*
X109577143Y-117371904D01*
X109481905Y-117324285D01*
X109243810Y-117324285D01*
X109148571Y-117371904D01*
X109100952Y-117419523D01*
X109053333Y-117514761D01*
X109053333Y-117705238D01*
X109100952Y-117800476D01*
X109148571Y-117848095D01*
X109243810Y-117895714D01*
X109672381Y-97956666D02*
X109196190Y-98290000D01*
X109672381Y-98528095D02*
X108672381Y-98528095D01*
X108672381Y-98147142D01*
X108720000Y-98051904D01*
X108767619Y-98004285D01*
X108862857Y-97956666D01*
X109005714Y-97956666D01*
X109100952Y-98004285D01*
X109148571Y-98051904D01*
X109196190Y-98147142D01*
X109196190Y-98528095D01*
X108672381Y-97623333D02*
X108672381Y-96956666D01*
X109672381Y-97385238D01*
X128722381Y-131548095D02*
X127722381Y-131548095D01*
X127722381Y-131167142D01*
X127770000Y-131071904D01*
X127817619Y-131024285D01*
X127912857Y-130976666D01*
X128055714Y-130976666D01*
X128150952Y-131024285D01*
X128198571Y-131071904D01*
X128246190Y-131167142D01*
X128246190Y-131548095D01*
X127817619Y-130595714D02*
X127770000Y-130548095D01*
X127722381Y-130452857D01*
X127722381Y-130214761D01*
X127770000Y-130119523D01*
X127817619Y-130071904D01*
X127912857Y-130024285D01*
X128008095Y-130024285D01*
X128150952Y-130071904D01*
X128722381Y-130643333D01*
X128722381Y-130024285D01*
X109751905Y-142692381D02*
X109751905Y-141692381D01*
X110132858Y-141692381D01*
X110228096Y-141740000D01*
X110275715Y-141787619D01*
X110323334Y-141882857D01*
X110323334Y-142025714D01*
X110275715Y-142120952D01*
X110228096Y-142168571D01*
X110132858Y-142216190D01*
X109751905Y-142216190D01*
X111275715Y-142692381D02*
X110704286Y-142692381D01*
X110990000Y-142692381D02*
X110990000Y-141692381D01*
X110894762Y-141835238D01*
X110799524Y-141930476D01*
X110704286Y-141978095D01*
X128722381Y-135358095D02*
X127722381Y-135358095D01*
X127722381Y-135120000D01*
X127770000Y-134977142D01*
X127865238Y-134881904D01*
X127960476Y-134834285D01*
X128150952Y-134786666D01*
X128293810Y-134786666D01*
X128484286Y-134834285D01*
X128579524Y-134881904D01*
X128674762Y-134977142D01*
X128722381Y-135120000D01*
X128722381Y-135358095D01*
X127722381Y-134453333D02*
X127722381Y-133834285D01*
X128103333Y-134167619D01*
X128103333Y-134024761D01*
X128150952Y-133929523D01*
X128198571Y-133881904D01*
X128293810Y-133834285D01*
X128531905Y-133834285D01*
X128627143Y-133881904D01*
X128674762Y-133929523D01*
X128722381Y-134024761D01*
X128722381Y-134310476D01*
X128674762Y-134405714D01*
X128627143Y-134453333D01*
X124277381Y-135516905D02*
X123277381Y-135516905D01*
X124277381Y-134945476D02*
X123705952Y-135374048D01*
X123277381Y-134945476D02*
X123848810Y-135516905D01*
X124912381Y-129706666D02*
X124436190Y-130040000D01*
X124912381Y-130278095D02*
X123912381Y-130278095D01*
X123912381Y-129897142D01*
X123960000Y-129801904D01*
X124007619Y-129754285D01*
X124102857Y-129706666D01*
X124245714Y-129706666D01*
X124340952Y-129754285D01*
X124388571Y-129801904D01*
X124436190Y-129897142D01*
X124436190Y-130278095D01*
X124007619Y-129325714D02*
X123960000Y-129278095D01*
X123912381Y-129182857D01*
X123912381Y-128944761D01*
X123960000Y-128849523D01*
X124007619Y-128801904D01*
X124102857Y-128754285D01*
X124198095Y-128754285D01*
X124340952Y-128801904D01*
X124912381Y-129373333D01*
X124912381Y-128754285D01*
M02*
